<?xml version="1.0" encoding="UTF-8" standalone="no"?>
<!DOCTYPE svg PUBLIC "-//W3C//DTD SVG 1.1//EN" "http://www.w3.org/Graphics/SVG/1.1/DTD/svg11.dtd">
<svg xmlns="http://www.w3.org/2000/svg" version="1.1" viewBox="0.00 0.00 512.00 512.00">
<g stroke-width="2.00" fill="none" stroke-linecap="butt">
<path stroke="#808080" vector-effect="non-scaling-stroke" d="
  M 336.00 176.00
  L 319.71 175.75"
/>
<path stroke="#723e19" vector-effect="non-scaling-stroke" d="
  M 319.71 175.75
  Q 320.34 168.20 319.88 160.64
  Q 319.84 160.06 319.27 160.06
  L 288.00 159.96"
/>
<path stroke="#787736" vector-effect="non-scaling-stroke" d="
  M 288.00 159.96
  L 288.00 144.49
  A 0.50 0.49 89.4 0 0 287.51 144.00
  L 224.71 144.00
  Q 224.05 144.00 224.05 144.66
  L 224.00 160.00"
/>
<path stroke="#787736" vector-effect="non-scaling-stroke" d="
  M 224.00 160.00
  L 192.68 160.07
  Q 192.07 160.07 192.07 160.68
  L 192.00 176.00"
/>
<path stroke="#787736" vector-effect="non-scaling-stroke" d="
  M 192.00 176.00
  L 176.49 176.04
  Q 176.00 176.04 176.00 176.53
  L 176.00 191.50
  Q 176.00 192.00 175.50 192.00
  L 160.50 192.00
  A 0.50 0.50 0.0 0 0 160.00 192.50
  L 160.00 319.30
  Q 160.00 319.93 160.64 319.94
  L 175.98 319.96"
/>
<path stroke="#808080" vector-effect="non-scaling-stroke" d="
  M 175.98 319.96
  L 176.00 336.00"
/>
<path stroke="#f2be99" vector-effect="non-scaling-stroke" d="
  M 319.71 175.75
  L 288.56 175.96
  Q 288.00 175.97 288.00 176.52
  L 288.00 191.47
  Q 288.00 192.00 287.47 192.01
  L 272.04 192.25"
/>
<path stroke="#cd7536" vector-effect="non-scaling-stroke" d="
  M 272.04 192.25
  Q 256.02 191.59 240.00 192.29"
/>
<path stroke="#eab54f" vector-effect="non-scaling-stroke" d="
  M 240.00 192.29
  Q 232.33 191.66 224.66 192.12
  Q 224.11 192.15 224.11 192.70
  L 224.25 207.96"
/>
<path stroke="#cd7536" vector-effect="non-scaling-stroke" d="
  M 224.25 207.96
  Q 224.13 208.00 224.00 208.04"
/>
<path stroke="#eab54f" vector-effect="non-scaling-stroke" d="
  M 224.00 208.04
  L 208.50 208.01
  A 0.49 0.49 0.0 0 0 208.01 208.50
  L 208.04 256.00"
/>
<path stroke="#f2be99" vector-effect="non-scaling-stroke" d="
  M 208.04 256.00
  L 208.01 271.49
  A 0.51 0.50 -90.0 0 1 207.51 272.00
  L 192.50 272.00
  Q 192.00 272.00 192.00 272.50
  L 192.00 287.47
  Q 192.00 287.97 191.50 287.97
  L 176.04 288.03"
/>
<path stroke="#eab54f" vector-effect="non-scaling-stroke" d="
  M 176.04 288.03
  L 176.02 192.49
  Q 176.02 192.00 176.52 192.00
  L 191.47 192.00
  Q 191.96 192.00 191.96 191.51
  L 192.00 176.00"
/>
<path stroke="#eab54f" vector-effect="non-scaling-stroke" d="
  M 224.00 160.00
  L 223.93 175.32
  Q 223.93 175.93 223.32 175.93
  L 192.00 176.00"
/>
<path stroke="#eab54f" vector-effect="non-scaling-stroke" d="
  M 288.00 159.96
  L 224.00 160.00"
/>
<path stroke="#808080" vector-effect="non-scaling-stroke" d="
  M 336.00 176.00
  L 336.11 192.39"
/>
<path stroke="#dab69c" vector-effect="non-scaling-stroke" d="
  M 336.11 192.39
  L 335.97 207.96"
/>
<path stroke="#f2be99" vector-effect="non-scaling-stroke" d="
  M 335.97 207.96
  L 320.49 207.99
  A 0.49 0.49 0.0 0 1 320.00 207.50
  L 320.00 192.50
  Q 320.00 192.00 319.50 192.00
  L 304.54 192.00
  Q 304.04 192.00 304.04 192.50
  L 304.00 208.00
  L 288.73 208.01
  A 0.73 0.72 -0.0 0 0 288.00 208.73
  L 288.00 223.50
  Q 288.00 224.00 288.50 224.00
  L 303.50 224.00
  Q 304.00 224.00 304.00 224.50
  L 304.00 239.27
  Q 304.00 239.95 303.32 239.95
  L 288.50 240.04"
/>
<path stroke="#dab69c" vector-effect="non-scaling-stroke" d="
  M 288.50 240.04
  L 288.32 239.85
  Q 288.00 239.51 288.00 239.05
  L 288.00 224.50
  Q 288.00 224.00 287.50 224.00
  L 272.57 224.00
  A 0.56 0.56 0.0 0 0 272.01 224.56
  L 272.00 239.96"
/>
<path stroke="#f2be99" vector-effect="non-scaling-stroke" d="
  M 272.00 239.96
  L 256.67 239.99
  A 0.66 0.66 0.0 0 0 256.01 240.65
  L 256.00 256.00"
/>
<path stroke="#f2be99" vector-effect="non-scaling-stroke" d="
  M 256.00 256.00
  L 240.68 256.07
  Q 240.07 256.07 240.07 256.68
  L 240.00 272.00"
/>
<path stroke="#dab69c" vector-effect="non-scaling-stroke" d="
  M 240.00 272.00
  L 224.54 272.01
  A 0.53 0.53 0.0 0 0 224.01 272.54
  L 224.00 287.96"
/>
<path stroke="#f7f6b5" vector-effect="non-scaling-stroke" d="
  M 224.00 287.96
  L 208.74 287.99
  A 0.75 0.74 90.0 0 0 208.00 288.74
  L 208.00 303.16
  A 0.85 0.85 0.0 0 0 208.85 304.01
  L 224.00 304.04"
/>
<path stroke="#f2be99" vector-effect="non-scaling-stroke" d="
  M 224.00 304.04
  L 223.98 319.40
  Q 223.98 320.00 223.39 320.00
  L 208.63 320.00
  Q 208.00 320.00 208.00 319.38
  L 208.00 304.50
  Q 208.00 304.00 207.50 304.00
  L 192.75 304.00
  Q 192.00 304.00 192.00 304.75
  L 192.00 319.50
  Q 192.00 320.00 192.50 320.00
  L 207.50 320.00
  Q 208.00 320.00 208.00 320.50
  L 208.00 335.47
  A 0.63 0.62 -0.5 0 1 207.38 336.09
  L 192.25 336.29"
/>
<path stroke="#808080" vector-effect="non-scaling-stroke" d="
  M 192.25 336.29
  L 176.00 336.00"
/>
<path stroke="#f7f6b5" vector-effect="non-scaling-stroke" d="
  M 175.98 319.96
  L 176.04 288.03"
/>
<path stroke="#f7f6b5" vector-effect="non-scaling-stroke" d="
  M 208.04 256.00
  L 222.77 256.00
  A 1.30 1.29 0.2 0 0 224.07 254.72
  L 224.25 240.04"
/>
<path stroke="#dab69c" vector-effect="non-scaling-stroke" d="
  M 224.25 240.04
  L 239.17 240.01
  Q 240.06 240.01 240.08 239.12
  L 240.25 224.04"
/>
<path stroke="#f2be99" vector-effect="non-scaling-stroke" d="
  M 240.25 224.04
  L 255.25 223.92
  Q 255.91 223.91 255.91 223.26
  L 256.00 208.29"
/>
<path stroke="#dab69c" vector-effect="non-scaling-stroke" d="
  M 256.00 208.29
  L 271.30 207.98
  Q 271.94 207.97 271.94 207.34
  L 272.04 192.25"
/>
<path stroke="#723e19" vector-effect="non-scaling-stroke" d="
  M 192.00 352.00
  L 224.04 352.25"
/>
<path stroke="#5b371d" vector-effect="non-scaling-stroke" d="
  M 224.04 352.25
  L 224.01 367.51
  A 0.49 0.49 0.0 0 0 224.50 368.00
  L 287.29 368.00
  Q 287.95 368.00 287.95 367.34
  L 288.00 352.00"
/>
<path stroke="#5b371d" vector-effect="non-scaling-stroke" d="
  M 288.00 352.00
  L 319.32 351.93
  Q 319.93 351.93 319.93 351.32
  L 320.00 336.00"
/>
<path stroke="#5b371d" vector-effect="non-scaling-stroke" d="
  M 320.00 336.00
  L 335.32 335.93
  Q 335.93 335.93 335.93 335.32
  L 336.00 320.00"
/>
<path stroke="#5b371d" vector-effect="non-scaling-stroke" d="
  M 336.00 320.00
  L 351.53 319.99
  A 0.47 0.47 0.0 0 0 352.00 319.52
  L 352.00 192.73
  Q 352.00 192.16 351.43 192.12
  Q 343.96 191.61 336.11 192.39"
/>
<path stroke="#cd7536" vector-effect="non-scaling-stroke" d="
  M 335.97 207.96
  L 336.00 320.00"
/>
<path stroke="#cd7536" vector-effect="non-scaling-stroke" d="
  M 336.00 320.00
  L 320.68 320.07
  Q 320.07 320.07 320.07 320.68
  L 320.00 336.00"
/>
<path stroke="#cd7536" vector-effect="non-scaling-stroke" d="
  M 320.00 336.00
  L 288.68 336.07
  Q 288.07 336.07 288.07 336.68
  L 288.00 352.00"
/>
<path stroke="#cd7536" vector-effect="non-scaling-stroke" d="
  M 288.00 352.00
  L 224.04 352.25"
/>
<path stroke="#723e19" vector-effect="non-scaling-stroke" d="
  M 192.00 352.00
  L 192.25 336.29"
/>
<path stroke="#eab54f" vector-effect="non-scaling-stroke" d="
  M 224.00 304.04
  Q 224.13 304.00 224.25 303.96"
/>
<path stroke="#f2be99" vector-effect="non-scaling-stroke" d="
  M 224.25 303.96
  L 239.43 304.03
  Q 240.00 304.03 240.00 303.47
  L 240.04 288.25"
/>
<path stroke="#cd7536" vector-effect="non-scaling-stroke" d="
  M 240.04 288.25
  L 240.50 288.04"
/>
<path stroke="#f2be99" vector-effect="non-scaling-stroke" d="
  M 240.50 288.04
  L 255.26 288.00
  A 0.74 0.74 0.0 0 0 256.00 287.26
  L 256.00 272.51
  Q 256.00 272.01 255.50 272.01
  L 240.00 272.00"
/>
<path stroke="#f2be99" vector-effect="non-scaling-stroke" d="
  M 256.00 256.00
  L 256.07 271.31
  Q 256.07 271.92 256.68 271.93
  L 271.75 271.96"
/>
<path stroke="#cd7536" vector-effect="non-scaling-stroke" d="
  M 271.75 271.96
  L 271.91 303.59
  A 0.41 0.41 0.0 0 1 271.50 304.00
  L 241.16 304.00
  Q 240.00 304.00 240.00 305.15
  L 240.00 319.37
  Q 240.00 320.00 240.62 320.00
  L 271.50 320.00
  Q 272.00 320.00 272.00 319.50
  L 272.00 304.50
  Q 272.00 304.00 272.50 304.00
  L 287.52 304.00
  A 0.40 0.40 0.0 0 0 287.92 303.60
  L 287.75 255.71"
/>
<path stroke="#f2be99" vector-effect="non-scaling-stroke" d="
  M 287.75 255.71
  L 288.04 240.25"
/>
<path stroke="#cd7536" vector-effect="non-scaling-stroke" d="
  M 288.04 240.25
  L 288.50 240.04"
/>
<path stroke="#f2be99" vector-effect="non-scaling-stroke" d="
  M 304.00 208.00
  L 304.03 223.50
  Q 304.04 224.00 304.54 224.00
  L 319.35 224.00
  A 0.66 0.65 -90.0 0 0 320.00 223.34
  L 320.00 208.51
  Q 320.00 208.01 319.50 208.01
  L 304.00 208.00"
/>
<path stroke="#cd7536" vector-effect="non-scaling-stroke" d="
  M 256.00 208.29
  Q 248.37 207.62 240.73 208.14
  Q 240.17 208.18 240.13 208.74
  Q 239.64 216.40 240.25 224.04"
/>
<path stroke="#d2ad52" vector-effect="non-scaling-stroke" d="
  M 224.25 240.04
  L 224.00 208.04"
/>
<path stroke="#d2ad52" vector-effect="non-scaling-stroke" d="
  M 240.00 192.29
  L 239.93 207.31
  Q 239.93 207.92 239.32 207.93
  L 224.25 207.96"
/>
<path stroke="#dab69c" vector-effect="non-scaling-stroke" d="
  M 288.04 240.25
  L 272.25 240.04"
/>
<path stroke="#cd7536" vector-effect="non-scaling-stroke" d="
  M 272.25 240.04
  Q 272.13 240.00 272.00 239.96"
/>
<path stroke="#dab69c" vector-effect="non-scaling-stroke" d="
  M 240.00 272.00
  L 239.99 287.33
  Q 239.99 287.63 240.21 287.81
  L 240.50 288.04"
/>
<path stroke="#dab69c" vector-effect="non-scaling-stroke" d="
  M 240.04 288.25
  L 224.25 288.04"
/>
<path stroke="#d2ad52" vector-effect="non-scaling-stroke" d="
  M 224.25 288.04
  Q 224.13 288.00 224.00 287.96"
/>
<path stroke="#f7f6b5" vector-effect="non-scaling-stroke" d="
  M 224.25 288.04
  Q 223.62 296.00 224.25 303.96"
/>
<path stroke="#f2be99" vector-effect="non-scaling-stroke" d="
  M 272.25 240.04
  Q 271.63 247.92 272.25 255.79"
/>
<path stroke="#cd7536" vector-effect="non-scaling-stroke" d="
  M 272.25 255.79
  L 272.00 256.04"
/>
<path stroke="#f2be99" vector-effect="non-scaling-stroke" d="
  M 272.00 256.04
  L 256.00 256.00"
/>
<path stroke="#dab69c" vector-effect="non-scaling-stroke" d="
  M 287.75 255.71
  Q 280.00 256.38 272.25 255.79"
/>
<path stroke="#dab69c" vector-effect="non-scaling-stroke" d="
  M 271.75 271.96
  L 272.00 256.04"
/>
</g>
<path fill="#000000" d="
  M 336.00 176.00
  L 319.71 175.75
  Q 320.34 168.20 319.88 160.64
  Q 319.84 160.06 319.27 160.06
  L 288.00 159.96
  L 288.00 144.49
  A 0.50 0.49 89.4 0 0 287.51 144.00
  L 224.71 144.00
  Q 224.05 144.00 224.05 144.66
  L 224.00 160.00
  L 192.68 160.07
  Q 192.07 160.07 192.07 160.68
  L 192.00 176.00
  L 176.49 176.04
  Q 176.00 176.04 176.00 176.53
  L 176.00 191.50
  Q 176.00 192.00 175.50 192.00
  L 160.50 192.00
  A 0.50 0.50 0.0 0 0 160.00 192.50
  L 160.00 319.30
  Q 160.00 319.93 160.64 319.94
  L 175.98 319.96
  L 176.00 336.00
  L 160.49 335.96
  Q 160.00 335.96 160.00 335.47
  L 160.00 320.50
  Q 160.00 320.00 159.50 320.00
  L 144.63 320.00
  Q 144.00 320.00 144.00 319.38
  L 144.00 192.49
  A 0.51 0.51 0.0 0 1 144.51 191.98
  L 159.35 192.06
  Q 160.00 192.06 160.00 191.40
  L 160.00 176.50
  Q 160.00 176.00 160.50 176.00
  L 175.50 176.00
  Q 176.00 176.00 176.00 175.50
  L 176.00 160.50
  Q 176.00 160.00 176.50 160.00
  L 191.50 160.00
  Q 192.00 160.00 192.00 159.50
  L 192.00 144.50
  Q 192.00 144.00 192.50 144.00
  L 223.50 144.00
  A 0.50 0.50 0.0 0 0 224.00 143.50
  L 224.00 128.75
  Q 224.00 128.00 224.75 128.00
  L 287.09 128.00
  A 0.91 0.90 -0.0 0 1 288.00 128.90
  L 288.00 143.38
  Q 288.00 144.00 288.63 144.00
  L 319.22 144.00
  A 0.78 0.78 0.0 0 1 320.00 144.78
  L 320.00 159.50
  Q 320.00 160.00 320.50 160.00
  L 335.49 160.00
  Q 335.99 160.00 335.99 160.50
  L 336.00 176.00
  Z"
/>
<path fill="#efed6b" d="
  M 288.00 159.96
  L 224.00 160.00
  L 224.05 144.66
  Q 224.05 144.00 224.71 144.00
  L 287.51 144.00
  A 0.50 0.49 89.4 0 1 288.00 144.49
  L 288.00 159.96
  Z"
/>
<path fill="#efed6b" d="
  M 224.00 160.00
  L 223.93 175.32
  Q 223.93 175.93 223.32 175.93
  L 192.00 176.00
  L 192.07 160.68
  Q 192.07 160.07 192.68 160.07
  L 224.00 160.00
  Z"
/>
<path fill="#e47c32" d="
  M 224.00 160.00
  L 288.00 159.96
  L 319.27 160.06
  Q 319.84 160.06 319.88 160.64
  Q 320.34 168.20 319.71 175.75
  L 288.56 175.96
  Q 288.00 175.97 288.00 176.52
  L 288.00 191.47
  Q 288.00 192.00 287.47 192.01
  L 272.04 192.25
  Q 256.02 191.59 240.00 192.29
  Q 232.33 191.66 224.66 192.12
  Q 224.11 192.15 224.11 192.70
  L 224.25 207.96
  Q 224.13 208.00 224.00 208.04
  L 208.50 208.01
  A 0.49 0.49 0.0 0 0 208.01 208.50
  L 208.04 256.00
  L 208.01 271.49
  A 0.51 0.50 -90.0 0 1 207.51 272.00
  L 192.50 272.00
  Q 192.00 272.00 192.00 272.50
  L 192.00 287.47
  Q 192.00 287.97 191.50 287.97
  L 176.04 288.03
  L 176.02 192.49
  Q 176.02 192.00 176.52 192.00
  L 191.47 192.00
  Q 191.96 192.00 191.96 191.51
  L 192.00 176.00
  L 223.32 175.93
  Q 223.93 175.93 223.93 175.32
  L 224.00 160.00
  Z"
/>
<path fill="#ffffff" d="
  M 319.71 175.75
  L 336.00 176.00
  L 336.11 192.39
  L 335.97 207.96
  L 320.49 207.99
  A 0.49 0.49 0.0 0 1 320.00 207.50
  L 320.00 192.50
  Q 320.00 192.00 319.50 192.00
  L 304.54 192.00
  Q 304.04 192.00 304.04 192.50
  L 304.00 208.00
  L 288.73 208.01
  A 0.73 0.72 -0.0 0 0 288.00 208.73
  L 288.00 223.50
  Q 288.00 224.00 288.50 224.00
  L 303.50 224.00
  Q 304.00 224.00 304.00 224.50
  L 304.00 239.27
  Q 304.00 239.95 303.32 239.95
  L 288.50 240.04
  L 288.32 239.85
  Q 288.00 239.51 288.00 239.05
  L 288.00 224.50
  Q 288.00 224.00 287.50 224.00
  L 272.57 224.00
  A 0.56 0.56 0.0 0 0 272.01 224.56
  L 272.00 239.96
  L 256.67 239.99
  A 0.66 0.66 0.0 0 0 256.01 240.65
  L 256.00 256.00
  L 240.68 256.07
  Q 240.07 256.07 240.07 256.68
  L 240.00 272.00
  L 224.54 272.01
  A 0.53 0.53 0.0 0 0 224.01 272.54
  L 224.00 287.96
  L 208.74 287.99
  A 0.75 0.74 90.0 0 0 208.00 288.74
  L 208.00 303.16
  A 0.85 0.85 0.0 0 0 208.85 304.01
  L 224.00 304.04
  L 223.98 319.40
  Q 223.98 320.00 223.39 320.00
  L 208.63 320.00
  Q 208.00 320.00 208.00 319.38
  L 208.00 304.50
  Q 208.00 304.00 207.50 304.00
  L 192.75 304.00
  Q 192.00 304.00 192.00 304.75
  L 192.00 319.50
  Q 192.00 320.00 192.50 320.00
  L 207.50 320.00
  Q 208.00 320.00 208.00 320.50
  L 208.00 335.47
  A 0.63 0.62 -0.5 0 1 207.38 336.09
  L 192.25 336.29
  L 176.00 336.00
  L 175.98 319.96
  L 176.04 288.03
  L 191.50 287.97
  Q 192.00 287.97 192.00 287.47
  L 192.00 272.50
  Q 192.00 272.00 192.50 272.00
  L 207.51 272.00
  A 0.51 0.50 -90.0 0 0 208.01 271.49
  L 208.04 256.00
  L 222.77 256.00
  A 1.30 1.29 0.2 0 0 224.07 254.72
  L 224.25 240.04
  L 239.17 240.01
  Q 240.06 240.01 240.08 239.12
  L 240.25 224.04
  L 255.25 223.92
  Q 255.91 223.91 255.91 223.26
  L 256.00 208.29
  L 271.30 207.98
  Q 271.94 207.97 271.94 207.34
  L 272.04 192.25
  L 287.47 192.01
  Q 288.00 192.00 288.00 191.47
  L 288.00 176.52
  Q 288.00 175.97 288.56 175.96
  L 319.71 175.75
  Z"
/>
<path fill="#efed6b" d="
  M 192.00 176.00
  L 191.96 191.51
  Q 191.96 192.00 191.47 192.00
  L 176.52 192.00
  Q 176.02 192.00 176.02 192.49
  L 176.04 288.03
  L 175.98 319.96
  L 160.64 319.94
  Q 160.00 319.93 160.00 319.30
  L 160.00 192.50
  A 0.50 0.50 0.0 0 1 160.50 192.00
  L 175.50 192.00
  Q 176.00 192.00 176.00 191.50
  L 176.00 176.53
  Q 176.00 176.04 176.49 176.04
  L 192.00 176.00
  Z"
/>
<path fill="#000000" d="
  M 336.00 176.00
  L 351.50 176.01
  Q 352.00 176.01 352.00 176.51
  L 352.00 191.50
  Q 352.00 192.00 352.50 192.00
  L 367.50 192.00
  Q 368.00 192.00 368.00 192.50
  L 368.00 319.50
  A 0.50 0.50 0.0 0 1 367.50 320.00
  L 352.50 320.00
  Q 352.00 320.00 352.00 320.50
  L 352.00 335.50
  Q 352.00 336.00 351.50 336.00
  L 336.50 336.00
  Q 336.00 336.00 336.00 336.50
  L 336.00 351.50
  Q 336.00 352.00 335.50 352.00
  L 320.50 352.00
  Q 320.00 352.00 320.00 352.50
  L 320.00 367.50
  Q 320.00 368.00 319.50 368.00
  L 288.50 368.00
  A 0.50 0.50 0.0 0 0 288.00 368.50
  L 288.00 383.25
  Q 288.00 384.00 287.25 384.00
  L 224.50 384.00
  A 0.50 0.50 0.0 0 1 224.00 383.50
  L 224.00 368.50
  Q 224.00 368.00 223.50 368.00
  L 192.48 368.00
  A 0.47 0.46 -0.0 0 1 192.01 367.54
  L 192.00 352.00
  L 224.04 352.25
  L 224.01 367.51
  A 0.49 0.49 0.0 0 0 224.50 368.00
  L 287.29 368.00
  Q 287.95 368.00 287.95 367.34
  L 288.00 352.00
  L 319.32 351.93
  Q 319.93 351.93 319.93 351.32
  L 320.00 336.00
  L 335.32 335.93
  Q 335.93 335.93 335.93 335.32
  L 336.00 320.00
  L 351.53 319.99
  A 0.47 0.47 0.0 0 0 352.00 319.52
  L 352.00 192.73
  Q 352.00 192.16 351.43 192.12
  Q 343.96 191.61 336.11 192.39
  L 336.00 176.00
  Z"
/>
<path fill="#efed6b" d="
  M 240.00 192.29
  L 239.93 207.31
  Q 239.93 207.92 239.32 207.93
  L 224.25 207.96
  L 224.11 192.70
  Q 224.11 192.15 224.66 192.12
  Q 232.33 191.66 240.00 192.29
  Z"
/>
<path fill="#b56d39" d="
  M 272.04 192.25
  L 271.94 207.34
  Q 271.94 207.97 271.30 207.98
  L 256.00 208.29
  Q 248.37 207.62 240.73 208.14
  Q 240.17 208.18 240.13 208.74
  Q 239.64 216.40 240.25 224.04
  L 240.08 239.12
  Q 240.06 240.01 239.17 240.01
  L 224.25 240.04
  L 224.00 208.04
  Q 224.13 208.00 224.25 207.96
  L 239.32 207.93
  Q 239.93 207.92 239.93 207.31
  L 240.00 192.29
  Q 256.02 191.59 272.04 192.25
  Z"
/>
<path fill="#e47c32" d="
  M 335.97 207.96
  L 336.00 320.00
  L 320.68 320.07
  Q 320.07 320.07 320.07 320.68
  L 320.00 336.00
  L 288.68 336.07
  Q 288.07 336.07 288.07 336.68
  L 288.00 352.00
  L 224.04 352.25
  L 192.00 352.00
  L 192.25 336.29
  L 207.38 336.09
  A 0.63 0.62 -0.5 0 0 208.00 335.47
  L 208.00 320.50
  Q 208.00 320.00 207.50 320.00
  L 192.50 320.00
  Q 192.00 320.00 192.00 319.50
  L 192.00 304.75
  Q 192.00 304.00 192.75 304.00
  L 207.50 304.00
  Q 208.00 304.00 208.00 304.50
  L 208.00 319.38
  Q 208.00 320.00 208.63 320.00
  L 223.39 320.00
  Q 223.98 320.00 223.98 319.40
  L 224.00 304.04
  Q 224.13 304.00 224.25 303.96
  L 239.43 304.03
  Q 240.00 304.03 240.00 303.47
  L 240.04 288.25
  L 240.50 288.04
  L 255.26 288.00
  A 0.74 0.74 0.0 0 0 256.00 287.26
  L 256.00 272.51
  Q 256.00 272.01 255.50 272.01
  L 240.00 272.00
  L 240.07 256.68
  Q 240.07 256.07 240.68 256.07
  L 256.00 256.00
  L 256.07 271.31
  Q 256.07 271.92 256.68 271.93
  L 271.75 271.96
  L 271.91 303.59
  A 0.41 0.41 0.0 0 1 271.50 304.00
  L 241.16 304.00
  Q 240.00 304.00 240.00 305.15
  L 240.00 319.37
  Q 240.00 320.00 240.62 320.00
  L 271.50 320.00
  Q 272.00 320.00 272.00 319.50
  L 272.00 304.50
  Q 272.00 304.00 272.50 304.00
  L 287.52 304.00
  A 0.40 0.40 0.0 0 0 287.92 303.60
  L 287.75 255.71
  L 288.04 240.25
  L 288.50 240.04
  L 303.32 239.95
  Q 304.00 239.95 304.00 239.27
  L 304.00 224.50
  Q 304.00 224.00 303.50 224.00
  L 288.50 224.00
  Q 288.00 224.00 288.00 223.50
  L 288.00 208.73
  A 0.73 0.72 -0.0 0 1 288.73 208.01
  L 304.00 208.00
  L 304.03 223.50
  Q 304.04 224.00 304.54 224.00
  L 319.35 224.00
  A 0.66 0.65 -90.0 0 0 320.00 223.34
  L 320.00 208.51
  Q 320.00 208.01 319.50 208.01
  L 304.00 208.00
  L 304.04 192.50
  Q 304.04 192.00 304.54 192.00
  L 319.50 192.00
  Q 320.00 192.00 320.00 192.50
  L 320.00 207.50
  A 0.49 0.49 0.0 0 0 320.49 207.99
  L 335.97 207.96
  Z"
/>
<path fill="#b56d39" d="
  M 336.00 320.00
  L 335.97 207.96
  L 336.11 192.39
  Q 343.96 191.61 351.43 192.12
  Q 352.00 192.16 352.00 192.73
  L 352.00 319.52
  A 0.47 0.47 0.0 0 1 351.53 319.99
  L 336.00 320.00
  Z"
/>
<path fill="#efed6b" d="
  M 224.00 208.04
  L 224.25 240.04
  L 224.07 254.72
  A 1.30 1.29 0.2 0 1 222.77 256.00
  L 208.04 256.00
  L 208.01 208.50
  A 0.49 0.49 0.0 0 1 208.50 208.01
  L 224.00 208.04
  Z"
/>
<path fill="#e47c32" d="
  M 256.00 208.29
  L 255.91 223.26
  Q 255.91 223.91 255.25 223.92
  L 240.25 224.04
  Q 239.64 216.40 240.13 208.74
  Q 240.17 208.18 240.73 208.14
  Q 248.37 207.62 256.00 208.29
  Z"
/>
<path fill="#ffffff" d="
  M 304.00 208.00
  L 319.50 208.01
  Q 320.00 208.01 320.00 208.51
  L 320.00 223.34
  A 0.66 0.65 -90.0 0 1 319.35 224.00
  L 304.54 224.00
  Q 304.04 224.00 304.03 223.50
  L 304.00 208.00
  Z"
/>
<path fill="#b56d39" d="
  M 288.50 240.04
  L 288.04 240.25
  L 272.25 240.04
  Q 272.13 240.00 272.00 239.96
  L 272.01 224.56
  A 0.56 0.56 0.0 0 1 272.57 224.00
  L 287.50 224.00
  Q 288.00 224.00 288.00 224.50
  L 288.00 239.05
  Q 288.00 239.51 288.32 239.85
  L 288.50 240.04
  Z"
/>
<path fill="#e47c32" d="
  M 272.00 239.96
  Q 272.13 240.00 272.25 240.04
  Q 271.63 247.92 272.25 255.79
  L 272.00 256.04
  L 256.00 256.00
  L 256.01 240.65
  A 0.66 0.66 0.0 0 1 256.67 239.99
  L 272.00 239.96
  Z"
/>
<path fill="#ffffff" d="
  M 272.25 240.04
  L 288.04 240.25
  L 287.75 255.71
  Q 280.00 256.38 272.25 255.79
  Q 271.63 247.92 272.25 240.04
  Z"
/>
<path fill="#b56d39" d="
  M 272.25 255.79
  Q 280.00 256.38 287.75 255.71
  L 287.92 303.60
  A 0.40 0.40 0.0 0 1 287.52 304.00
  L 272.50 304.00
  Q 272.00 304.00 272.00 304.50
  L 272.00 319.50
  Q 272.00 320.00 271.50 320.00
  L 240.62 320.00
  Q 240.00 320.00 240.00 319.37
  L 240.00 305.15
  Q 240.00 304.00 241.16 304.00
  L 271.50 304.00
  A 0.41 0.41 0.0 0 0 271.91 303.59
  L 271.75 271.96
  L 272.00 256.04
  L 272.25 255.79
  Z"
/>
<path fill="#ffffff" d="
  M 256.00 256.00
  L 272.00 256.04
  L 271.75 271.96
  L 256.68 271.93
  Q 256.07 271.92 256.07 271.31
  L 256.00 256.00
  Z"
/>
<path fill="#b56d39" d="
  M 240.00 272.00
  L 239.99 287.33
  Q 239.99 287.63 240.21 287.81
  L 240.50 288.04
  L 240.04 288.25
  L 224.25 288.04
  Q 224.13 288.00 224.00 287.96
  L 224.01 272.54
  A 0.53 0.53 0.0 0 1 224.54 272.01
  L 240.00 272.00
  Z"
/>
<path fill="#ffffff" d="
  M 240.00 272.00
  L 255.50 272.01
  Q 256.00 272.01 256.00 272.51
  L 256.00 287.26
  A 0.74 0.74 0.0 0 1 255.26 288.00
  L 240.50 288.04
  L 240.21 287.81
  Q 239.99 287.63 239.99 287.33
  L 240.00 272.00
  Z"
/>
<path fill="#efed6b" d="
  M 224.00 287.96
  Q 224.13 288.00 224.25 288.04
  Q 223.62 296.00 224.25 303.96
  Q 224.13 304.00 224.00 304.04
  L 208.85 304.01
  A 0.85 0.85 0.0 0 1 208.00 303.16
  L 208.00 288.74
  A 0.75 0.74 90.0 0 1 208.74 287.99
  L 224.00 287.96
  Z"
/>
<path fill="#ffffff" d="
  M 224.25 288.04
  L 240.04 288.25
  L 240.00 303.47
  Q 240.00 304.03 239.43 304.03
  L 224.25 303.96
  Q 223.62 296.00 224.25 288.04
  Z"
/>
<path fill="#b56d39" d="
  M 336.00 320.00
  L 335.93 335.32
  Q 335.93 335.93 335.32 335.93
  L 320.00 336.00
  L 320.07 320.68
  Q 320.07 320.07 320.68 320.07
  L 336.00 320.00
  Z"
/>
<path fill="#000000" d="
  M 176.00 336.00
  L 192.25 336.29
  L 192.00 352.00
  L 176.68 351.93
  Q 176.07 351.93 176.07 351.32
  L 176.00 336.00
  Z"
/>
<path fill="#b56d39" d="
  M 320.00 336.00
  L 319.93 351.32
  Q 319.93 351.93 319.32 351.93
  L 288.00 352.00
  L 288.07 336.68
  Q 288.07 336.07 288.68 336.07
  L 320.00 336.00
  Z"
/>
<path fill="#b56d39" d="
  M 288.00 352.00
  L 287.95 367.34
  Q 287.95 368.00 287.29 368.00
  L 224.50 368.00
  A 0.49 0.49 0.0 0 1 224.01 367.51
  L 224.04 352.25
  L 288.00 352.00
  Z"
/>
</svg>
