<?xml version="1.0" encoding="UTF-8" ?>
<svg version="1.1" width="1024" height="1024" xmlns="http://www.w3.org/2000/svg" shape-rendering="crispEdges">
<rect x="704" y="160" width="32" height="32" fill="#804219" />
<rect x="736" y="160" width="32" height="32" fill="#804219" />
<rect x="768" y="160" width="32" height="32" fill="#804219" />
<rect x="800" y="160" width="32" height="32" fill="#804219" />
<rect x="672" y="192" width="32" height="32" fill="#804219" />
<rect x="704" y="192" width="32" height="32" fill="#F69E63" />
<rect x="736" y="192" width="32" height="32" fill="#F69E63" />
<rect x="768" y="192" width="32" height="32" fill="#F69E63" />
<rect x="800" y="192" width="32" height="32" fill="#F69E63" />
<rect x="832" y="192" width="32" height="32" fill="#804219" />
<rect x="672" y="224" width="32" height="32" fill="#804219" />
<rect x="704" y="224" width="32" height="32" fill="#DF7126" />
<rect x="736" y="224" width="32" height="32" fill="#DF7126" />
<rect x="768" y="224" width="32" height="32" fill="#F69E63" />
<rect x="800" y="224" width="32" height="32" fill="#F69E63" />
<rect x="832" y="224" width="32" height="32" fill="#804219" />
<rect x="672" y="256" width="32" height="32" fill="#804219" />
<rect x="704" y="256" width="32" height="32" fill="#DF7126" />
<rect x="736" y="256" width="32" height="32" fill="#DF7126" />
<rect x="768" y="256" width="32" height="32" fill="#DF7126" />
<rect x="800" y="256" width="32" height="32" fill="#F69E63" />
<rect x="832" y="256" width="32" height="32" fill="#804219" />
<rect x="672" y="288" width="32" height="32" fill="#804219" />
<rect x="704" y="288" width="32" height="32" fill="#DF7126" />
<rect x="736" y="288" width="32" height="32" fill="#DF7126" />
<rect x="768" y="288" width="32" height="32" fill="#DF7126" />
<rect x="800" y="288" width="32" height="32" fill="#F69E63" />
<rect x="832" y="288" width="32" height="32" fill="#804219" />
<rect x="672" y="320" width="32" height="32" fill="#804219" />
<rect x="704" y="320" width="32" height="32" fill="#DF7126" />
<rect x="736" y="320" width="32" height="32" fill="#DF7126" />
<rect x="768" y="320" width="32" height="32" fill="#DF7126" />
<rect x="800" y="320" width="32" height="32" fill="#F69E63" />
<rect x="832" y="320" width="32" height="32" fill="#804219" />
<rect x="672" y="352" width="32" height="32" fill="#804219" />
<rect x="704" y="352" width="32" height="32" fill="#DF7126" />
<rect x="736" y="352" width="32" height="32" fill="#DF7126" />
<rect x="768" y="352" width="32" height="32" fill="#DF7126" />
<rect x="800" y="352" width="32" height="32" fill="#DF7126" />
<rect x="832" y="352" width="32" height="32" fill="#804219" />
<rect x="192" y="384" width="32" height="32" fill="#C85400" />
<rect x="224" y="384" width="32" height="32" fill="#C85400" />
<rect x="544" y="384" width="32" height="32" fill="#C85400" />
<rect x="576" y="384" width="32" height="32" fill="#C85400" />
<rect x="608" y="384" width="32" height="32" fill="#C85400" />
<rect x="640" y="384" width="32" height="32" fill="#C85400" />
<rect x="672" y="384" width="32" height="32" fill="#804219" />
<rect x="704" y="384" width="32" height="32" fill="#DF7126" />
<rect x="736" y="384" width="32" height="32" fill="#DF7126" />
<rect x="768" y="384" width="32" height="32" fill="#DF7126" />
<rect x="800" y="384" width="32" height="32" fill="#F69E63" />
<rect x="832" y="384" width="32" height="32" fill="#804219" />
<rect x="864" y="384" width="32" height="32" fill="#643413" />
<rect x="896" y="384" width="32" height="32" fill="#643413" />
<rect x="928" y="384" width="32" height="32" fill="#643413" />
<rect x="960" y="384" width="32" height="32" fill="#643413" />
<rect x="160" y="416" width="32" height="32" fill="#C85400" />
<rect x="192" y="416" width="32" height="32" fill="#F69E63" />
<rect x="224" y="416" width="32" height="32" fill="#F69E63" />
<rect x="256" y="416" width="32" height="32" fill="#C85400" />
<rect x="512" y="416" width="32" height="32" fill="#C85400" />
<rect x="544" y="416" width="32" height="32" fill="#F69E63" />
<rect x="576" y="416" width="32" height="32" fill="#F69E63" />
<rect x="608" y="416" width="32" height="32" fill="#F69E63" />
<rect x="640" y="416" width="32" height="32" fill="#C8641C" />
<rect x="672" y="416" width="32" height="32" fill="#804219" />
<rect x="704" y="416" width="32" height="32" fill="#DF7126" />
<rect x="736" y="416" width="32" height="32" fill="#DF7126" />
<rect x="768" y="416" width="32" height="32" fill="#DF7126" />
<rect x="800" y="416" width="32" height="32" fill="#DF7126" />
<rect x="832" y="416" width="32" height="32" fill="#804219" />
<rect x="864" y="416" width="32" height="32" fill="#C8641C" />
<rect x="896" y="416" width="32" height="32" fill="#DF7126" />
<rect x="928" y="416" width="32" height="32" fill="#C85400" />
<rect x="960" y="416" width="32" height="32" fill="#C85400" />
<rect x="992" y="416" width="32" height="32" fill="#643413" />
<rect x="128" y="448" width="32" height="32" fill="#C85400" />
<rect x="160" y="448" width="32" height="32" fill="#F69E63" />
<rect x="192" y="448" width="32" height="32" fill="#F69E63" />
<rect x="224" y="448" width="32" height="32" fill="#F69E63" />
<rect x="256" y="448" width="32" height="32" fill="#C85400" />
<rect x="512" y="448" width="32" height="32" fill="#C85400" />
<rect x="544" y="448" width="32" height="32" fill="#F69E63" />
<rect x="576" y="448" width="32" height="32" fill="#DF7126" />
<rect x="608" y="448" width="32" height="32" fill="#DF7126" />
<rect x="640" y="448" width="32" height="32" fill="#C8641C" />
<rect x="672" y="448" width="32" height="32" fill="#804219" />
<rect x="704" y="448" width="32" height="32" fill="#DF7126" />
<rect x="736" y="448" width="32" height="32" fill="#804219" />
<rect x="768" y="448" width="32" height="32" fill="#804219" />
<rect x="800" y="448" width="32" height="32" fill="#DF7126" />
<rect x="832" y="448" width="32" height="32" fill="#804219" />
<rect x="864" y="448" width="32" height="32" fill="#C8641C" />
<rect x="896" y="448" width="32" height="32" fill="#DF7126" />
<rect x="928" y="448" width="32" height="32" fill="#C85400" />
<rect x="960" y="448" width="32" height="32" fill="#C85400" />
<rect x="992" y="448" width="32" height="32" fill="#643413" />
<rect x="96" y="480" width="32" height="32" fill="#C85400" />
<rect x="128" y="480" width="32" height="32" fill="#F69E63" />
<rect x="160" y="480" width="32" height="32" fill="#DF7126" />
<rect x="192" y="480" width="32" height="32" fill="#DF7126" />
<rect x="224" y="480" width="32" height="32" fill="#F69E63" />
<rect x="256" y="480" width="32" height="32" fill="#C85400" />
<rect x="512" y="480" width="32" height="32" fill="#C85400" />
<rect x="544" y="480" width="32" height="32" fill="#F69E63" />
<rect x="576" y="480" width="32" height="32" fill="#DF7126" />
<rect x="608" y="480" width="32" height="32" fill="#DF7126" />
<rect x="640" y="480" width="32" height="32" fill="#C8641C" />
<rect x="672" y="480" width="32" height="32" fill="#804219" />
<rect x="704" y="480" width="32" height="32" fill="#DF7126" />
<rect x="736" y="480" width="32" height="32" fill="#804219" />
<rect x="768" y="480" width="32" height="32" fill="#804219" />
<rect x="800" y="480" width="32" height="32" fill="#DF7126" />
<rect x="832" y="480" width="32" height="32" fill="#804219" />
<rect x="864" y="480" width="32" height="32" fill="#C8641C" />
<rect x="896" y="480" width="32" height="32" fill="#DF7126" />
<rect x="928" y="480" width="32" height="32" fill="#C85400" />
<rect x="960" y="480" width="32" height="32" fill="#C85400" />
<rect x="992" y="480" width="32" height="32" fill="#643413" />
<rect x="64" y="512" width="32" height="32" fill="#C85400" />
<rect x="96" y="512" width="32" height="32" fill="#F69E63" />
<rect x="128" y="512" width="32" height="32" fill="#DF7126" />
<rect x="160" y="512" width="32" height="32" fill="#F69E63" />
<rect x="192" y="512" width="32" height="32" fill="#DF7126" />
<rect x="224" y="512" width="32" height="32" fill="#DF7126" />
<rect x="256" y="512" width="32" height="32" fill="#C85400" />
<rect x="512" y="512" width="32" height="32" fill="#C85400" />
<rect x="544" y="512" width="32" height="32" fill="#F69E63" />
<rect x="576" y="512" width="32" height="32" fill="#DF7126" />
<rect x="608" y="512" width="32" height="32" fill="#DF7126" />
<rect x="640" y="512" width="32" height="32" fill="#C8641C" />
<rect x="672" y="512" width="32" height="32" fill="#804219" />
<rect x="704" y="512" width="32" height="32" fill="#DF7126" />
<rect x="736" y="512" width="32" height="32" fill="#DF7126" />
<rect x="768" y="512" width="32" height="32" fill="#DF7126" />
<rect x="800" y="512" width="32" height="32" fill="#DF7126" />
<rect x="832" y="512" width="32" height="32" fill="#804219" />
<rect x="864" y="512" width="32" height="32" fill="#C8641C" />
<rect x="896" y="512" width="32" height="32" fill="#DF7126" />
<rect x="928" y="512" width="32" height="32" fill="#C85400" />
<rect x="960" y="512" width="32" height="32" fill="#C85400" />
<rect x="992" y="512" width="32" height="32" fill="#643413" />
<rect x="64" y="544" width="32" height="32" fill="#C85400" />
<rect x="96" y="544" width="32" height="32" fill="#DF7126" />
<rect x="128" y="544" width="32" height="32" fill="#DF7126" />
<rect x="160" y="544" width="32" height="32" fill="#DF7126" />
<rect x="192" y="544" width="32" height="32" fill="#DF7126" />
<rect x="224" y="544" width="32" height="32" fill="#A44806" />
<rect x="256" y="544" width="32" height="32" fill="#804219" />
<rect x="288" y="544" width="32" height="32" fill="#C85400" />
<rect x="512" y="544" width="32" height="32" fill="#C85400" />
<rect x="544" y="544" width="32" height="32" fill="#F69E63" />
<rect x="576" y="544" width="32" height="32" fill="#DF7126" />
<rect x="608" y="544" width="32" height="32" fill="#DF7126" />
<rect x="640" y="544" width="32" height="32" fill="#DF7126" />
<rect x="672" y="544" width="32" height="32" fill="#C8641C" />
<rect x="704" y="544" width="32" height="32" fill="#804219" />
<rect x="736" y="544" width="32" height="32" fill="#804219" />
<rect x="768" y="544" width="32" height="32" fill="#804219" />
<rect x="800" y="544" width="32" height="32" fill="#804219" />
<rect x="832" y="544" width="32" height="32" fill="#C8641C" />
<rect x="864" y="544" width="32" height="32" fill="#DF7126" />
<rect x="896" y="544" width="32" height="32" fill="#DF7126" />
<rect x="928" y="544" width="32" height="32" fill="#C85400" />
<rect x="960" y="544" width="32" height="32" fill="#C85400" />
<rect x="992" y="544" width="32" height="32" fill="#643413" />
<rect x="96" y="576" width="32" height="32" fill="#C85400" />
<rect x="128" y="576" width="32" height="32" fill="#DF7126" />
<rect x="160" y="576" width="32" height="32" fill="#A44806" />
<rect x="192" y="576" width="32" height="32" fill="#A44806" />
<rect x="224" y="576" width="32" height="32" fill="#804219" />
<rect x="256" y="576" width="32" height="32" fill="#DF7126" />
<rect x="288" y="576" width="32" height="32" fill="#F69E63" />
<rect x="320" y="576" width="32" height="32" fill="#C85400" />
<rect x="512" y="576" width="32" height="32" fill="#C85400" />
<rect x="544" y="576" width="32" height="32" fill="#F69E63" />
<rect x="576" y="576" width="32" height="32" fill="#DF7126" />
<rect x="608" y="576" width="32" height="32" fill="#DF7126" />
<rect x="640" y="576" width="32" height="32" fill="#DF7126" />
<rect x="672" y="576" width="32" height="32" fill="#DF7126" />
<rect x="704" y="576" width="32" height="32" fill="#C8641C" />
<rect x="736" y="576" width="32" height="32" fill="#C8641C" />
<rect x="768" y="576" width="32" height="32" fill="#C8641C" />
<rect x="800" y="576" width="32" height="32" fill="#C8641C" />
<rect x="832" y="576" width="32" height="32" fill="#DF7126" />
<rect x="864" y="576" width="32" height="32" fill="#DF7126" />
<rect x="896" y="576" width="32" height="32" fill="#DF7126" />
<rect x="928" y="576" width="32" height="32" fill="#C85400" />
<rect x="960" y="576" width="32" height="32" fill="#C85400" />
<rect x="992" y="576" width="32" height="32" fill="#643413" />
<rect x="128" y="608" width="32" height="32" fill="#C85400" />
<rect x="160" y="608" width="32" height="32" fill="#C85400" />
<rect x="192" y="608" width="32" height="32" fill="#C85400" />
<rect x="224" y="608" width="32" height="32" fill="#A44806" />
<rect x="256" y="608" width="32" height="32" fill="#DF7126" />
<rect x="288" y="608" width="32" height="32" fill="#DF7126" />
<rect x="320" y="608" width="32" height="32" fill="#F69E63" />
<rect x="352" y="608" width="32" height="32" fill="#C85400" />
<rect x="512" y="608" width="32" height="32" fill="#C85400" />
<rect x="544" y="608" width="32" height="32" fill="#F69E63" />
<rect x="576" y="608" width="32" height="32" fill="#DF7126" />
<rect x="608" y="608" width="32" height="32" fill="#F69E63" />
<rect x="640" y="608" width="32" height="32" fill="#F69E63" />
<rect x="672" y="608" width="32" height="32" fill="#DF7126" />
<rect x="704" y="608" width="32" height="32" fill="#DF7126" />
<rect x="736" y="608" width="32" height="32" fill="#DF7126" />
<rect x="768" y="608" width="32" height="32" fill="#DF7126" />
<rect x="800" y="608" width="32" height="32" fill="#DF7126" />
<rect x="832" y="608" width="32" height="32" fill="#DF7126" />
<rect x="864" y="608" width="32" height="32" fill="#DF7126" />
<rect x="896" y="608" width="32" height="32" fill="#DF7126" />
<rect x="928" y="608" width="32" height="32" fill="#C85400" />
<rect x="960" y="608" width="32" height="32" fill="#C85400" />
<rect x="992" y="608" width="32" height="32" fill="#643413" />
<rect x="224" y="640" width="32" height="32" fill="#C85400" />
<rect x="256" y="640" width="32" height="32" fill="#A44806" />
<rect x="288" y="640" width="32" height="32" fill="#DF7126" />
<rect x="320" y="640" width="32" height="32" fill="#DF7126" />
<rect x="352" y="640" width="32" height="32" fill="#F69E63" />
<rect x="384" y="640" width="32" height="32" fill="#C85400" />
<rect x="512" y="640" width="32" height="32" fill="#C85400" />
<rect x="544" y="640" width="32" height="32" fill="#F69E63" />
<rect x="576" y="640" width="32" height="32" fill="#DF7126" />
<rect x="608" y="640" width="32" height="32" fill="#DF7126" />
<rect x="640" y="640" width="32" height="32" fill="#DF7126" />
<rect x="672" y="640" width="32" height="32" fill="#DF7126" />
<rect x="704" y="640" width="32" height="32" fill="#DF7126" />
<rect x="736" y="640" width="32" height="32" fill="#DF7126" />
<rect x="768" y="640" width="32" height="32" fill="#DF7126" />
<rect x="800" y="640" width="32" height="32" fill="#DF7126" />
<rect x="832" y="640" width="32" height="32" fill="#DF7126" />
<rect x="864" y="640" width="32" height="32" fill="#DF7126" />
<rect x="896" y="640" width="32" height="32" fill="#DF7126" />
<rect x="928" y="640" width="32" height="32" fill="#C85400" />
<rect x="960" y="640" width="32" height="32" fill="#C85400" />
<rect x="992" y="640" width="32" height="32" fill="#643413" />
<rect x="256" y="672" width="32" height="32" fill="#C85400" />
<rect x="288" y="672" width="32" height="32" fill="#A44806" />
<rect x="320" y="672" width="32" height="32" fill="#DF7126" />
<rect x="352" y="672" width="32" height="32" fill="#DF7126" />
<rect x="384" y="672" width="32" height="32" fill="#DF7126" />
<rect x="416" y="672" width="32" height="32" fill="#C85400" />
<rect x="512" y="672" width="32" height="32" fill="#C85400" />
<rect x="544" y="672" width="32" height="32" fill="#DF7126" />
<rect x="576" y="672" width="32" height="32" fill="#DF7126" />
<rect x="608" y="672" width="32" height="32" fill="#F69E63" />
<rect x="640" y="672" width="32" height="32" fill="#F69E63" />
<rect x="672" y="672" width="32" height="32" fill="#DF7126" />
<rect x="704" y="672" width="32" height="32" fill="#DF7126" />
<rect x="736" y="672" width="32" height="32" fill="#DF7126" />
<rect x="768" y="672" width="32" height="32" fill="#DF7126" />
<rect x="800" y="672" width="32" height="32" fill="#DF7126" />
<rect x="832" y="672" width="32" height="32" fill="#DF7126" />
<rect x="864" y="672" width="32" height="32" fill="#DF7126" />
<rect x="896" y="672" width="32" height="32" fill="#DF7126" />
<rect x="928" y="672" width="32" height="32" fill="#C85400" />
<rect x="960" y="672" width="32" height="32" fill="#C85400" />
<rect x="992" y="672" width="32" height="32" fill="#643413" />
<rect x="288" y="704" width="32" height="32" fill="#C85400" />
<rect x="320" y="704" width="32" height="32" fill="#A44806" />
<rect x="352" y="704" width="32" height="32" fill="#DF7126" />
<rect x="384" y="704" width="32" height="32" fill="#DF7126" />
<rect x="416" y="704" width="32" height="32" fill="#DF7126" />
<rect x="448" y="704" width="32" height="32" fill="#C85400" />
<rect x="512" y="704" width="32" height="32" fill="#C85400" />
<rect x="544" y="704" width="32" height="32" fill="#F69E63" />
<rect x="576" y="704" width="32" height="32" fill="#DF7126" />
<rect x="608" y="704" width="32" height="32" fill="#F69E63" />
<rect x="640" y="704" width="32" height="32" fill="#F69E63" />
<rect x="672" y="704" width="32" height="32" fill="#DF7126" />
<rect x="704" y="704" width="32" height="32" fill="#DF7126" />
<rect x="736" y="704" width="32" height="32" fill="#DF7126" />
<rect x="768" y="704" width="32" height="32" fill="#DF7126" />
<rect x="800" y="704" width="32" height="32" fill="#DF7126" />
<rect x="832" y="704" width="32" height="32" fill="#DF7126" />
<rect x="864" y="704" width="32" height="32" fill="#DF7126" />
<rect x="896" y="704" width="32" height="32" fill="#DF7126" />
<rect x="928" y="704" width="32" height="32" fill="#C85400" />
<rect x="960" y="704" width="32" height="32" fill="#C85400" />
<rect x="992" y="704" width="32" height="32" fill="#643413" />
<rect x="320" y="736" width="32" height="32" fill="#C85400" />
<rect x="352" y="736" width="32" height="32" fill="#A44806" />
<rect x="384" y="736" width="32" height="32" fill="#DF7126" />
<rect x="416" y="736" width="32" height="32" fill="#DF7126" />
<rect x="448" y="736" width="32" height="32" fill="#DF7126" />
<rect x="480" y="736" width="32" height="32" fill="#C85400" />
<rect x="512" y="736" width="32" height="32" fill="#C85400" />
<rect x="544" y="736" width="32" height="32" fill="#DF7126" />
<rect x="576" y="736" width="32" height="32" fill="#DF7126" />
<rect x="608" y="736" width="32" height="32" fill="#F69E63" />
<rect x="640" y="736" width="32" height="32" fill="#F69E63" />
<rect x="672" y="736" width="32" height="32" fill="#DF7126" />
<rect x="704" y="736" width="32" height="32" fill="#DF7126" />
<rect x="736" y="736" width="32" height="32" fill="#DF7126" />
<rect x="768" y="736" width="32" height="32" fill="#DF7126" />
<rect x="800" y="736" width="32" height="32" fill="#DF7126" />
<rect x="832" y="736" width="32" height="32" fill="#DF7126" />
<rect x="864" y="736" width="32" height="32" fill="#DF7126" />
<rect x="896" y="736" width="32" height="32" fill="#DF7126" />
<rect x="928" y="736" width="32" height="32" fill="#C85400" />
<rect x="960" y="736" width="32" height="32" fill="#C85400" />
<rect x="992" y="736" width="32" height="32" fill="#643413" />
<rect x="352" y="768" width="32" height="32" fill="#C85400" />
<rect x="384" y="768" width="32" height="32" fill="#A44806" />
<rect x="416" y="768" width="32" height="32" fill="#A44806" />
<rect x="448" y="768" width="32" height="32" fill="#DF7126" />
<rect x="480" y="768" width="32" height="32" fill="#DF7126" />
<rect x="512" y="768" width="32" height="32" fill="#C85400" />
<rect x="544" y="768" width="32" height="32" fill="#DF7126" />
<rect x="576" y="768" width="32" height="32" fill="#DF7126" />
<rect x="608" y="768" width="32" height="32" fill="#F69E63" />
<rect x="640" y="768" width="32" height="32" fill="#F69E63" />
<rect x="672" y="768" width="32" height="32" fill="#DF7126" />
<rect x="704" y="768" width="32" height="32" fill="#DF7126" />
<rect x="736" y="768" width="32" height="32" fill="#DF7126" />
<rect x="768" y="768" width="32" height="32" fill="#DF7126" />
<rect x="800" y="768" width="32" height="32" fill="#DF7126" />
<rect x="832" y="768" width="32" height="32" fill="#DF7126" />
<rect x="864" y="768" width="32" height="32" fill="#DF7126" />
<rect x="896" y="768" width="32" height="32" fill="#DF7126" />
<rect x="928" y="768" width="32" height="32" fill="#C85400" />
<rect x="960" y="768" width="32" height="32" fill="#C85400" />
<rect x="992" y="768" width="32" height="32" fill="#643413" />
<rect x="384" y="800" width="32" height="32" fill="#C85400" />
<rect x="416" y="800" width="32" height="32" fill="#A44806" />
<rect x="448" y="800" width="32" height="32" fill="#A44806" />
<rect x="480" y="800" width="32" height="32" fill="#A44806" />
<rect x="512" y="800" width="32" height="32" fill="#C85400" />
<rect x="544" y="800" width="32" height="32" fill="#DF7126" />
<rect x="576" y="800" width="32" height="32" fill="#DF7126" />
<rect x="608" y="800" width="32" height="32" fill="#F69E63" />
<rect x="640" y="800" width="32" height="32" fill="#F69E63" />
<rect x="672" y="800" width="32" height="32" fill="#DF7126" />
<rect x="704" y="800" width="32" height="32" fill="#DF7126" />
<rect x="736" y="800" width="32" height="32" fill="#DF7126" />
<rect x="768" y="800" width="32" height="32" fill="#DF7126" />
<rect x="800" y="800" width="32" height="32" fill="#DF7126" />
<rect x="832" y="800" width="32" height="32" fill="#DF7126" />
<rect x="864" y="800" width="32" height="32" fill="#C85400" />
<rect x="896" y="800" width="32" height="32" fill="#C85400" />
<rect x="928" y="800" width="32" height="32" fill="#C85400" />
<rect x="960" y="800" width="32" height="32" fill="#C85400" />
<rect x="992" y="800" width="32" height="32" fill="#643413" />
<rect x="416" y="832" width="32" height="32" fill="#C85400" />
<rect x="448" y="832" width="32" height="32" fill="#A44806" />
<rect x="480" y="832" width="32" height="32" fill="#A44806" />
<rect x="512" y="832" width="32" height="32" fill="#C85400" />
<rect x="544" y="832" width="32" height="32" fill="#DF7126" />
<rect x="576" y="832" width="32" height="32" fill="#DF7126" />
<rect x="608" y="832" width="32" height="32" fill="#F69E63" />
<rect x="640" y="832" width="32" height="32" fill="#F69E63" />
<rect x="672" y="832" width="32" height="32" fill="#DF7126" />
<rect x="704" y="832" width="32" height="32" fill="#DF7126" />
<rect x="736" y="832" width="32" height="32" fill="#DF7126" />
<rect x="768" y="832" width="32" height="32" fill="#DF7126" />
<rect x="800" y="832" width="32" height="32" fill="#DF7126" />
<rect x="832" y="832" width="32" height="32" fill="#C85400" />
<rect x="864" y="832" width="32" height="32" fill="#C85400" />
<rect x="896" y="832" width="32" height="32" fill="#C85400" />
<rect x="928" y="832" width="32" height="32" fill="#C85400" />
<rect x="960" y="832" width="32" height="32" fill="#C85400" />
<rect x="992" y="832" width="32" height="32" fill="#643413" />
<rect x="448" y="864" width="32" height="32" fill="#C85400" />
<rect x="480" y="864" width="32" height="32" fill="#C85400" />
<rect x="512" y="864" width="32" height="32" fill="#C85400" />
<rect x="544" y="864" width="32" height="32" fill="#DF7126" />
<rect x="576" y="864" width="32" height="32" fill="#DF7126" />
<rect x="608" y="864" width="32" height="32" fill="#DF7126" />
<rect x="640" y="864" width="32" height="32" fill="#DF7126" />
<rect x="672" y="864" width="32" height="32" fill="#DF7126" />
<rect x="704" y="864" width="32" height="32" fill="#DF7126" />
<rect x="736" y="864" width="32" height="32" fill="#DF7126" />
<rect x="768" y="864" width="32" height="32" fill="#DF7126" />
<rect x="800" y="864" width="32" height="32" fill="#C85400" />
<rect x="832" y="864" width="32" height="32" fill="#C85400" />
<rect x="864" y="864" width="32" height="32" fill="#C85400" />
<rect x="896" y="864" width="32" height="32" fill="#C85400" />
<rect x="928" y="864" width="32" height="32" fill="#C85400" />
<rect x="960" y="864" width="32" height="32" fill="#C85400" />
<rect x="992" y="864" width="32" height="32" fill="#643413" />
<rect x="544" y="896" width="32" height="32" fill="#C85400" />
<rect x="576" y="896" width="32" height="32" fill="#DF7126" />
<rect x="608" y="896" width="32" height="32" fill="#DF7126" />
<rect x="640" y="896" width="32" height="32" fill="#DF7126" />
<rect x="672" y="896" width="32" height="32" fill="#DF7126" />
<rect x="704" y="896" width="32" height="32" fill="#DF7126" />
<rect x="736" y="896" width="32" height="32" fill="#C85400" />
<rect x="768" y="896" width="32" height="32" fill="#C85400" />
<rect x="800" y="896" width="32" height="32" fill="#C85400" />
<rect x="832" y="896" width="32" height="32" fill="#C85400" />
<rect x="864" y="896" width="32" height="32" fill="#C85400" />
<rect x="896" y="896" width="32" height="32" fill="#C85400" />
<rect x="928" y="896" width="32" height="32" fill="#C85400" />
<rect x="960" y="896" width="32" height="32" fill="#643413" />
<rect x="576" y="928" width="32" height="32" fill="#C85400" />
<rect x="608" y="928" width="32" height="32" fill="#DF7126" />
<rect x="640" y="928" width="32" height="32" fill="#DF7126" />
<rect x="672" y="928" width="32" height="32" fill="#C85400" />
<rect x="704" y="928" width="32" height="32" fill="#C85400" />
<rect x="736" y="928" width="32" height="32" fill="#C85400" />
<rect x="768" y="928" width="32" height="32" fill="#C85400" />
<rect x="800" y="928" width="32" height="32" fill="#C85400" />
<rect x="832" y="928" width="32" height="32" fill="#C85400" />
<rect x="864" y="928" width="32" height="32" fill="#C85400" />
<rect x="896" y="928" width="32" height="32" fill="#C85400" />
<rect x="928" y="928" width="32" height="32" fill="#643413" />
<rect x="608" y="960" width="32" height="32" fill="#643413" />
<rect x="640" y="960" width="32" height="32" fill="#643413" />
<rect x="672" y="960" width="32" height="32" fill="#643413" />
<rect x="704" y="960" width="32" height="32" fill="#643413" />
<rect x="736" y="960" width="32" height="32" fill="#643413" />
<rect x="768" y="960" width="32" height="32" fill="#643413" />
<rect x="800" y="960" width="32" height="32" fill="#643413" />
<rect x="832" y="960" width="32" height="32" fill="#643413" />
<rect x="864" y="960" width="32" height="32" fill="#643413" />
<rect x="896" y="960" width="32" height="32" fill="#643413" />
</svg>