<?xml version="1.0" encoding="UTF-8" ?>
<svg version="1.1" width="1024" height="1024" xmlns="http://www.w3.org/2000/svg" shape-rendering="crispEdges">
<rect x="640" y="64" width="32" height="32" fill="#8AB660" />
<rect x="672" y="64" width="32" height="32" fill="#8AB660" />
<rect x="224" y="96" width="32" height="32" fill="#8AB660" />
<rect x="256" y="96" width="32" height="32" fill="#619233" />
<rect x="576" y="96" width="32" height="32" fill="#8AB660" />
<rect x="608" y="96" width="32" height="32" fill="#8AB660" />
<rect x="640" y="96" width="32" height="32" fill="#619233" />
<rect x="672" y="96" width="32" height="32" fill="#4B692F" />
<rect x="224" y="128" width="32" height="32" fill="#4B692F" />
<rect x="256" y="128" width="32" height="32" fill="#5D8935" />
<rect x="288" y="128" width="32" height="32" fill="#619233" />
<rect x="544" y="128" width="32" height="32" fill="#619233" />
<rect x="576" y="128" width="32" height="32" fill="#5D8935" />
<rect x="608" y="128" width="32" height="32" fill="#4B6D2A" />
<rect x="640" y="128" width="32" height="32" fill="#4B6D2A" />
<rect x="672" y="128" width="32" height="32" fill="#4B692F" />
<rect x="224" y="160" width="32" height="32" fill="#4B692F" />
<rect x="256" y="160" width="32" height="32" fill="#5D8935" />
<rect x="288" y="160" width="32" height="32" fill="#5D8935" />
<rect x="320" y="160" width="32" height="32" fill="#619233" />
<rect x="352" y="160" width="32" height="32" fill="#8AB660" />
<rect x="512" y="160" width="32" height="32" fill="#619233" />
<rect x="544" y="160" width="32" height="32" fill="#5D8935" />
<rect x="576" y="160" width="32" height="32" fill="#5D8935" />
<rect x="608" y="160" width="32" height="32" fill="#4B6D2A" />
<rect x="640" y="160" width="32" height="32" fill="#4B6D2A" />
<rect x="672" y="160" width="32" height="32" fill="#4B692F" />
<rect x="256" y="192" width="32" height="32" fill="#4B692F" />
<rect x="288" y="192" width="32" height="32" fill="#4B6D2A" />
<rect x="320" y="192" width="32" height="32" fill="#5D8935" />
<rect x="352" y="192" width="32" height="32" fill="#619233" />
<rect x="384" y="192" width="32" height="32" fill="#8AB660" />
<rect x="416" y="192" width="32" height="32" fill="#8AB660" />
<rect x="480" y="192" width="32" height="32" fill="#619233" />
<rect x="512" y="192" width="32" height="32" fill="#5D8935" />
<rect x="544" y="192" width="32" height="32" fill="#5D8935" />
<rect x="576" y="192" width="32" height="32" fill="#4B6D2A" />
<rect x="608" y="192" width="32" height="32" fill="#4B6D2A" />
<rect x="640" y="192" width="32" height="32" fill="#4B692F" />
<rect x="256" y="224" width="32" height="32" fill="#4B692F" />
<rect x="288" y="224" width="32" height="32" fill="#4B6D2A" />
<rect x="320" y="224" width="32" height="32" fill="#5D8935" />
<rect x="352" y="224" width="32" height="32" fill="#5D8935" />
<rect x="384" y="224" width="32" height="32" fill="#4B6D2A" />
<rect x="416" y="224" width="32" height="32" fill="#619233" />
<rect x="448" y="224" width="32" height="32" fill="#4B692F" />
<rect x="480" y="224" width="32" height="32" fill="#4B6D2A" />
<rect x="512" y="224" width="32" height="32" fill="#4B6D2A" />
<rect x="544" y="224" width="32" height="32" fill="#4B6D2A" />
<rect x="576" y="224" width="32" height="32" fill="#4B6D2A" />
<rect x="608" y="224" width="32" height="32" fill="#4B692F" />
<rect x="640" y="224" width="32" height="32" fill="#4B692F" />
<rect x="288" y="256" width="32" height="32" fill="#4B692F" />
<rect x="320" y="256" width="32" height="32" fill="#4B692F" />
<rect x="352" y="256" width="32" height="32" fill="#4B6D2A" />
<rect x="384" y="256" width="32" height="32" fill="#4B6D2A" />
<rect x="416" y="256" width="32" height="32" fill="#4B6D2A" />
<rect x="448" y="256" width="32" height="32" fill="#4B692F" />
<rect x="480" y="256" width="32" height="32" fill="#32491C" />
<rect x="512" y="256" width="32" height="32" fill="#32491C" />
<rect x="544" y="256" width="32" height="32" fill="#4B692F" />
<rect x="576" y="256" width="32" height="32" fill="#4B692F" />
<rect x="352" y="288" width="32" height="32" fill="#4B692F" />
<rect x="384" y="288" width="32" height="32" fill="#32491C" />
<rect x="416" y="288" width="32" height="32" fill="#32491C" />
<rect x="448" y="288" width="32" height="32" fill="#4B692F" />
<rect x="416" y="320" width="32" height="32" fill="#32491C" />
<rect x="448" y="320" width="32" height="32" fill="#4B692F" />
<rect x="512" y="320" width="32" height="32" fill="#5E5244" />
<rect x="544" y="320" width="32" height="32" fill="#5E5244" />
<rect x="576" y="320" width="32" height="32" fill="#5B5348" />
<rect x="256" y="352" width="32" height="32" fill="#5E5244" />
<rect x="288" y="352" width="32" height="32" fill="#5E5244" />
<rect x="320" y="352" width="32" height="32" fill="#5E5244" />
<rect x="416" y="352" width="32" height="32" fill="#5E5244" />
<rect x="448" y="352" width="32" height="32" fill="#4B692F" />
<rect x="480" y="352" width="32" height="32" fill="#5E5244" />
<rect x="512" y="352" width="32" height="32" fill="#644843" />
<rect x="544" y="352" width="32" height="32" fill="#644843" />
<rect x="576" y="352" width="32" height="32" fill="#644E4A" />
<rect x="608" y="352" width="32" height="32" fill="#5E5244" />
<rect x="192" y="384" width="32" height="32" fill="#5E5244" />
<rect x="224" y="384" width="32" height="32" fill="#ADA495" />
<rect x="256" y="384" width="32" height="32" fill="#40241F" />
<rect x="288" y="384" width="32" height="32" fill="#644843" />
<rect x="320" y="384" width="32" height="32" fill="#52332E" />
<rect x="352" y="384" width="32" height="32" fill="#5E5244" />
<rect x="384" y="384" width="32" height="32" fill="#5E5244" />
<rect x="416" y="384" width="32" height="32" fill="#52332E" />
<rect x="448" y="384" width="32" height="32" fill="#385220" />
<rect x="480" y="384" width="32" height="32" fill="#52332E" />
<rect x="512" y="384" width="32" height="32" fill="#5B3C36" />
<rect x="544" y="384" width="32" height="32" fill="#644843" />
<rect x="576" y="384" width="32" height="32" fill="#271613" />
<rect x="608" y="384" width="32" height="32" fill="#40241F" />
<rect x="640" y="384" width="32" height="32" fill="#5E5244" />
<rect x="672" y="384" width="32" height="32" fill="#5E5244" />
<rect x="704" y="384" width="32" height="32" fill="#5E5244" />
<rect x="736" y="384" width="32" height="32" fill="#5E5244" />
<rect x="160" y="416" width="32" height="32" fill="#5E5244" />
<rect x="192" y="416" width="32" height="32" fill="#887B6A" />
<rect x="224" y="416" width="32" height="32" fill="#BFB3A3" />
<rect x="256" y="416" width="32" height="32" fill="#271613" />
<rect x="288" y="416" width="32" height="32" fill="#40241F" />
<rect x="320" y="416" width="32" height="32" fill="#40241F" />
<rect x="352" y="416" width="32" height="32" fill="#271613" />
<rect x="384" y="416" width="32" height="32" fill="#271613" />
<rect x="416" y="416" width="32" height="32" fill="#40241F" />
<rect x="448" y="416" width="32" height="32" fill="#385220" />
<rect x="480" y="416" width="32" height="32" fill="#271613" />
<rect x="512" y="416" width="32" height="32" fill="#271613" />
<rect x="544" y="416" width="32" height="32" fill="#271613" />
<rect x="576" y="416" width="32" height="32" fill="#271613" />
<rect x="608" y="416" width="32" height="32" fill="#130A09" />
<rect x="640" y="416" width="32" height="32" fill="#BFB3A3" />
<rect x="672" y="416" width="32" height="32" fill="#BFB3A3" />
<rect x="704" y="416" width="32" height="32" fill="#BFB3A3" />
<rect x="736" y="416" width="32" height="32" fill="#867968" />
<rect x="768" y="416" width="32" height="32" fill="#5E5244" />
<rect x="160" y="448" width="32" height="32" fill="#5D503F" />
<rect x="192" y="448" width="32" height="32" fill="#5E5244" />
<rect x="224" y="448" width="32" height="32" fill="#BFB3A3" />
<rect x="256" y="448" width="32" height="32" fill="#BDB4A3" />
<rect x="288" y="448" width="32" height="32" fill="#130A09" />
<rect x="320" y="448" width="32" height="32" fill="#130A09" />
<rect x="352" y="448" width="32" height="32" fill="#40241F" />
<rect x="384" y="448" width="32" height="32" fill="#40241F" />
<rect x="416" y="448" width="32" height="32" fill="#271613" />
<rect x="448" y="448" width="32" height="32" fill="#385220" />
<rect x="480" y="448" width="32" height="32" fill="#261512" />
<rect x="512" y="448" width="32" height="32" fill="#40241F" />
<rect x="544" y="448" width="32" height="32" fill="#40241F" />
<rect x="576" y="448" width="32" height="32" fill="#130A09" />
<rect x="608" y="448" width="32" height="32" fill="#BFB3A3" />
<rect x="640" y="448" width="32" height="32" fill="#ADA495" />
<rect x="672" y="448" width="32" height="32" fill="#ADA495" />
<rect x="704" y="448" width="32" height="32" fill="#807362" />
<rect x="736" y="448" width="32" height="32" fill="#7C6F5E" />
<rect x="768" y="448" width="32" height="32" fill="#685848" />
<rect x="800" y="448" width="32" height="32" fill="#6F675C" />
<rect x="192" y="480" width="32" height="32" fill="#5E5244" />
<rect x="224" y="480" width="32" height="32" fill="#5E5244" />
<rect x="256" y="480" width="32" height="32" fill="#887C6C" />
<rect x="288" y="480" width="32" height="32" fill="#BFB3A3" />
<rect x="320" y="480" width="32" height="32" fill="#BFB3A3" />
<rect x="352" y="480" width="32" height="32" fill="#130A09" />
<rect x="384" y="480" width="32" height="32" fill="#311B17" />
<rect x="416" y="480" width="32" height="32" fill="#130A09" />
<rect x="448" y="480" width="32" height="32" fill="#190E0C" />
<rect x="480" y="480" width="32" height="32" fill="#130A09" />
<rect x="512" y="480" width="32" height="32" fill="#40241F" />
<rect x="544" y="480" width="32" height="32" fill="#130A09" />
<rect x="576" y="480" width="32" height="32" fill="#BFB3A3" />
<rect x="608" y="480" width="32" height="32" fill="#ADA495" />
<rect x="640" y="480" width="32" height="32" fill="#7B7366" />
<rect x="672" y="480" width="32" height="32" fill="#7B7366" />
<rect x="704" y="480" width="32" height="32" fill="#6E6150" />
<rect x="736" y="480" width="32" height="32" fill="#5E5244" />
<rect x="768" y="480" width="32" height="32" fill="#847562" />
<rect x="224" y="512" width="32" height="32" fill="#5E5244" />
<rect x="256" y="512" width="32" height="32" fill="#5E5244" />
<rect x="288" y="512" width="32" height="32" fill="#999081" />
<rect x="320" y="512" width="32" height="32" fill="#999081" />
<rect x="352" y="512" width="32" height="32" fill="#BFB3A3" />
<rect x="384" y="512" width="32" height="32" fill="#BFB3A3" />
<rect x="416" y="512" width="32" height="32" fill="#BFB3A3" />
<rect x="448" y="512" width="32" height="32" fill="#BFB3A3" />
<rect x="480" y="512" width="32" height="32" fill="#BFB3A3" />
<rect x="512" y="512" width="32" height="32" fill="#BFB3A3" />
<rect x="544" y="512" width="32" height="32" fill="#BFB3A3" />
<rect x="576" y="512" width="32" height="32" fill="#999282" />
<rect x="608" y="512" width="32" height="32" fill="#7B7366" />
<rect x="640" y="512" width="32" height="32" fill="#5E5244" />
<rect x="672" y="512" width="32" height="32" fill="#5E5244" />
<rect x="704" y="512" width="32" height="32" fill="#5E5244" />
<rect x="192" y="544" width="32" height="32" fill="#5F503D" />
<rect x="224" y="544" width="32" height="32" fill="#7D7161" />
<rect x="256" y="544" width="32" height="32" fill="#C2B7A5" />
<rect x="288" y="544" width="32" height="32" fill="#5E5244" />
<rect x="320" y="544" width="32" height="32" fill="#5E5244" />
<rect x="352" y="544" width="32" height="32" fill="#9A9182" />
<rect x="384" y="544" width="32" height="32" fill="#ADA495" />
<rect x="416" y="544" width="32" height="32" fill="#ADA495" />
<rect x="448" y="544" width="32" height="32" fill="#ADA495" />
<rect x="480" y="544" width="32" height="32" fill="#ADA495" />
<rect x="512" y="544" width="32" height="32" fill="#ADA495" />
<rect x="544" y="544" width="32" height="32" fill="#968E81" />
<rect x="576" y="544" width="32" height="32" fill="#7B7366" />
<rect x="608" y="544" width="32" height="32" fill="#5E5244" />
<rect x="640" y="544" width="32" height="32" fill="#5E5244" />
<rect x="672" y="544" width="32" height="32" fill="#7B7366" />
<rect x="704" y="544" width="32" height="32" fill="#544737" />
<rect x="736" y="544" width="32" height="32" fill="#655847" />
<rect x="160" y="576" width="32" height="32" fill="#5F503D" />
<rect x="192" y="576" width="32" height="32" fill="#827564" />
<rect x="224" y="576" width="32" height="32" fill="#C2B7A5" />
<rect x="256" y="576" width="32" height="32" fill="#C2B7A5" />
<rect x="288" y="576" width="32" height="32" fill="#C2B7A5" />
<rect x="320" y="576" width="32" height="32" fill="#C2B7A5" />
<rect x="352" y="576" width="32" height="32" fill="#5E5244" />
<rect x="384" y="576" width="32" height="32" fill="#5E5244" />
<rect x="416" y="576" width="32" height="32" fill="#887F6E" />
<rect x="448" y="576" width="32" height="32" fill="#887F6E" />
<rect x="480" y="576" width="32" height="32" fill="#887F6E" />
<rect x="512" y="576" width="32" height="32" fill="#887F6E" />
<rect x="544" y="576" width="32" height="32" fill="#5E5244" />
<rect x="576" y="576" width="32" height="32" fill="#5E5244" />
<rect x="608" y="576" width="32" height="32" fill="#85796B" />
<rect x="640" y="576" width="32" height="32" fill="#85796B" />
<rect x="672" y="576" width="32" height="32" fill="#85796B" />
<rect x="704" y="576" width="32" height="32" fill="#958878" />
<rect x="736" y="576" width="32" height="32" fill="#5C4F3F" />
<rect x="768" y="576" width="32" height="32" fill="#5C4F3F" />
<rect x="160" y="608" width="32" height="32" fill="#5F503D" />
<rect x="192" y="608" width="32" height="32" fill="#817463" />
<rect x="224" y="608" width="32" height="32" fill="#C2B7A5" />
<rect x="256" y="608" width="32" height="32" fill="#C2B7A5" />
<rect x="288" y="608" width="32" height="32" fill="#C2B7A5" />
<rect x="320" y="608" width="32" height="32" fill="#C2B7A5" />
<rect x="352" y="608" width="32" height="32" fill="#BCB3A2" />
<rect x="384" y="608" width="32" height="32" fill="#BCB3A2" />
<rect x="416" y="608" width="32" height="32" fill="#ADA493" />
<rect x="448" y="608" width="32" height="32" fill="#ADA493" />
<rect x="480" y="608" width="32" height="32" fill="#ADA493" />
<rect x="512" y="608" width="32" height="32" fill="#ADA493" />
<rect x="544" y="608" width="32" height="32" fill="#ADA493" />
<rect x="576" y="608" width="32" height="32" fill="#867C70" />
<rect x="608" y="608" width="32" height="32" fill="#85796B" />
<rect x="640" y="608" width="32" height="32" fill="#85796B" />
<rect x="672" y="608" width="32" height="32" fill="#85796B" />
<rect x="704" y="608" width="32" height="32" fill="#85796B" />
<rect x="736" y="608" width="32" height="32" fill="#8B7E6E" />
<rect x="768" y="608" width="32" height="32" fill="#5C4F3F" />
<rect x="800" y="608" width="32" height="32" fill="#675D51" />
<rect x="128" y="640" width="32" height="32" fill="#5F503D" />
<rect x="160" y="640" width="32" height="32" fill="#CCBFAE" />
<rect x="192" y="640" width="32" height="32" fill="#CCBFAE" />
<rect x="224" y="640" width="32" height="32" fill="#CCBFAE" />
<rect x="256" y="640" width="32" height="32" fill="#BCB3A2" />
<rect x="288" y="640" width="32" height="32" fill="#BCB3A2" />
<rect x="320" y="640" width="32" height="32" fill="#BCB3A2" />
<rect x="352" y="640" width="32" height="32" fill="#B7AE9D" />
<rect x="384" y="640" width="32" height="32" fill="#B7AE9D" />
<rect x="416" y="640" width="32" height="32" fill="#B7AE9D" />
<rect x="448" y="640" width="32" height="32" fill="#4B692F" />
<rect x="480" y="640" width="32" height="32" fill="#4B692F" />
<rect x="512" y="640" width="32" height="32" fill="#B7AE9D" />
<rect x="544" y="640" width="32" height="32" fill="#B7AE9D" />
<rect x="576" y="640" width="32" height="32" fill="#B7AE9D" />
<rect x="608" y="640" width="32" height="32" fill="#908476" />
<rect x="640" y="640" width="32" height="32" fill="#908476" />
<rect x="672" y="640" width="32" height="32" fill="#908476" />
<rect x="704" y="640" width="32" height="32" fill="#908476" />
<rect x="736" y="640" width="32" height="32" fill="#908476" />
<rect x="768" y="640" width="32" height="32" fill="#8D8070" />
<rect x="800" y="640" width="32" height="32" fill="#594F43" />
<rect x="128" y="672" width="32" height="32" fill="#5F503D" />
<rect x="160" y="672" width="32" height="32" fill="#CCBFAE" />
<rect x="192" y="672" width="32" height="32" fill="#CCBFAE" />
<rect x="224" y="672" width="32" height="32" fill="#BCB3A2" />
<rect x="256" y="672" width="32" height="32" fill="#BCB3A2" />
<rect x="288" y="672" width="32" height="32" fill="#BCB3A2" />
<rect x="320" y="672" width="32" height="32" fill="#BCB3A2" />
<rect x="352" y="672" width="32" height="32" fill="#BCB3A2" />
<rect x="384" y="672" width="32" height="32" fill="#BCB3A2" />
<rect x="416" y="672" width="32" height="32" fill="#4B692F" />
<rect x="448" y="672" width="32" height="32" fill="#4B692F" />
<rect x="480" y="672" width="32" height="32" fill="#4B692F" />
<rect x="512" y="672" width="32" height="32" fill="#BCB3A2" />
<rect x="544" y="672" width="32" height="32" fill="#4B692F" />
<rect x="576" y="672" width="32" height="32" fill="#4B692F" />
<rect x="608" y="672" width="32" height="32" fill="#877B6D" />
<rect x="640" y="672" width="32" height="32" fill="#877B6D" />
<rect x="672" y="672" width="32" height="32" fill="#877B6D" />
<rect x="704" y="672" width="32" height="32" fill="#877B6D" />
<rect x="736" y="672" width="32" height="32" fill="#877B6D" />
<rect x="768" y="672" width="32" height="32" fill="#908373" />
<rect x="800" y="672" width="32" height="32" fill="#5C4F3F" />
<rect x="832" y="672" width="32" height="32" fill="#524535" />
<rect x="128" y="704" width="32" height="32" fill="#5F503D" />
<rect x="160" y="704" width="32" height="32" fill="#BCB3A2" />
<rect x="192" y="704" width="32" height="32" fill="#BCB3A2" />
<rect x="224" y="704" width="32" height="32" fill="#BCB3A2" />
<rect x="256" y="704" width="32" height="32" fill="#BCB3A2" />
<rect x="288" y="704" width="32" height="32" fill="#BCB3A2" />
<rect x="320" y="704" width="32" height="32" fill="#BCB3A2" />
<rect x="352" y="704" width="32" height="32" fill="#BCB3A2" />
<rect x="384" y="704" width="32" height="32" fill="#BCB3A2" />
<rect x="416" y="704" width="32" height="32" fill="#BCB3A2" />
<rect x="448" y="704" width="32" height="32" fill="#BFB7AA" />
<rect x="480" y="704" width="32" height="32" fill="#BFB7AA" />
<rect x="512" y="704" width="32" height="32" fill="#BEB8AA" />
<rect x="544" y="704" width="32" height="32" fill="#BFB7AA" />
<rect x="576" y="704" width="32" height="32" fill="#BFB7AA" />
<rect x="608" y="704" width="32" height="32" fill="#B3AC9C" />
<rect x="640" y="704" width="32" height="32" fill="#877B6D" />
<rect x="672" y="704" width="32" height="32" fill="#877B6D" />
<rect x="704" y="704" width="32" height="32" fill="#877B6D" />
<rect x="736" y="704" width="32" height="32" fill="#877B6D" />
<rect x="768" y="704" width="32" height="32" fill="#9D9080" />
<rect x="800" y="704" width="32" height="32" fill="#9D9080" />
<rect x="832" y="704" width="32" height="32" fill="#5C4F3F" />
<rect x="128" y="736" width="32" height="32" fill="#5F503D" />
<rect x="160" y="736" width="32" height="32" fill="#5E5244" />
<rect x="192" y="736" width="32" height="32" fill="#B3AC9C" />
<rect x="224" y="736" width="32" height="32" fill="#B3AC9C" />
<rect x="256" y="736" width="32" height="32" fill="#B7AE9D" />
<rect x="288" y="736" width="32" height="32" fill="#B7AE9D" />
<rect x="320" y="736" width="32" height="32" fill="#B7AE9D" />
<rect x="352" y="736" width="32" height="32" fill="#B7AE9D" />
<rect x="384" y="736" width="32" height="32" fill="#B7AE9D" />
<rect x="416" y="736" width="32" height="32" fill="#4B692F" />
<rect x="448" y="736" width="32" height="32" fill="#BEB8AC" />
<rect x="480" y="736" width="32" height="32" fill="#BEB8AC" />
<rect x="512" y="736" width="32" height="32" fill="#4B692F" />
<rect x="544" y="736" width="32" height="32" fill="#4B692F" />
<rect x="576" y="736" width="32" height="32" fill="#B3AC9C" />
<rect x="608" y="736" width="32" height="32" fill="#928978" />
<rect x="640" y="736" width="32" height="32" fill="#928978" />
<rect x="672" y="736" width="32" height="32" fill="#928978" />
<rect x="704" y="736" width="32" height="32" fill="#928978" />
<rect x="736" y="736" width="32" height="32" fill="#9D9080" />
<rect x="768" y="736" width="32" height="32" fill="#9D9080" />
<rect x="800" y="736" width="32" height="32" fill="#5C4F3F" />
<rect x="832" y="736" width="32" height="32" fill="#4B3E2D" />
<rect x="128" y="768" width="32" height="32" fill="#5F503D" />
<rect x="160" y="768" width="32" height="32" fill="#5E5244" />
<rect x="192" y="768" width="32" height="32" fill="#B3AC9C" />
<rect x="224" y="768" width="32" height="32" fill="#B9AE9C" />
<rect x="256" y="768" width="32" height="32" fill="#B7AE9D" />
<rect x="288" y="768" width="32" height="32" fill="#B7AE9D" />
<rect x="320" y="768" width="32" height="32" fill="#B7AE9D" />
<rect x="352" y="768" width="32" height="32" fill="#B7AE9D" />
<rect x="384" y="768" width="32" height="32" fill="#B6AF9D" />
<rect x="416" y="768" width="32" height="32" fill="#B3AC9C" />
<rect x="448" y="768" width="32" height="32" fill="#B3AC9C" />
<rect x="480" y="768" width="32" height="32" fill="#B3AC9C" />
<rect x="512" y="768" width="32" height="32" fill="#B3AC9C" />
<rect x="544" y="768" width="32" height="32" fill="#B3AC9C" />
<rect x="576" y="768" width="32" height="32" fill="#B3AC9C" />
<rect x="608" y="768" width="32" height="32" fill="#9D9080" />
<rect x="640" y="768" width="32" height="32" fill="#9D9080" />
<rect x="672" y="768" width="32" height="32" fill="#9D9080" />
<rect x="704" y="768" width="32" height="32" fill="#9D9080" />
<rect x="736" y="768" width="32" height="32" fill="#9D9080" />
<rect x="768" y="768" width="32" height="32" fill="#5C4F3F" />
<rect x="800" y="768" width="32" height="32" fill="#554B3F" />
<rect x="160" y="800" width="32" height="32" fill="#5E5244" />
<rect x="192" y="800" width="32" height="32" fill="#5E5244" />
<rect x="224" y="800" width="32" height="32" fill="#5E5244" />
<rect x="256" y="800" width="32" height="32" fill="#B3AC9C" />
<rect x="288" y="800" width="32" height="32" fill="#B3AC9C" />
<rect x="320" y="800" width="32" height="32" fill="#B3AC9C" />
<rect x="352" y="800" width="32" height="32" fill="#B3AC9C" />
<rect x="384" y="800" width="32" height="32" fill="#B3AC9C" />
<rect x="416" y="800" width="32" height="32" fill="#B3AC9C" />
<rect x="448" y="800" width="32" height="32" fill="#928978" />
<rect x="480" y="800" width="32" height="32" fill="#928978" />
<rect x="512" y="800" width="32" height="32" fill="#928978" />
<rect x="544" y="800" width="32" height="32" fill="#928978" />
<rect x="576" y="800" width="32" height="32" fill="#928978" />
<rect x="608" y="800" width="32" height="32" fill="#9D9080" />
<rect x="640" y="800" width="32" height="32" fill="#9D9080" />
<rect x="672" y="800" width="32" height="32" fill="#9D9080" />
<rect x="704" y="800" width="32" height="32" fill="#9D9080" />
<rect x="736" y="800" width="32" height="32" fill="#5C4F3F" />
<rect x="768" y="800" width="32" height="32" fill="#5C4F3E" />
<rect x="160" y="832" width="32" height="32" fill="#5E5244" />
<rect x="192" y="832" width="32" height="32" fill="#5E5244" />
<rect x="224" y="832" width="32" height="32" fill="#5E5244" />
<rect x="256" y="832" width="32" height="32" fill="#655847" />
<rect x="288" y="832" width="32" height="32" fill="#6B5E4D" />
<rect x="320" y="832" width="32" height="32" fill="#6B5E4D" />
<rect x="352" y="832" width="32" height="32" fill="#746756" />
<rect x="384" y="832" width="32" height="32" fill="#A19684" />
<rect x="416" y="832" width="32" height="32" fill="#A19684" />
<rect x="448" y="832" width="32" height="32" fill="#A19684" />
<rect x="480" y="832" width="32" height="32" fill="#A19684" />
<rect x="512" y="832" width="32" height="32" fill="#A19684" />
<rect x="544" y="832" width="32" height="32" fill="#A19684" />
<rect x="576" y="832" width="32" height="32" fill="#A19684" />
<rect x="608" y="832" width="32" height="32" fill="#9D9080" />
<rect x="640" y="832" width="32" height="32" fill="#9D9080" />
<rect x="672" y="832" width="32" height="32" fill="#9D9080" />
<rect x="704" y="832" width="32" height="32" fill="#5C4F3F" />
<rect x="736" y="832" width="32" height="32" fill="#60513E" />
<rect x="288" y="864" width="32" height="32" fill="#5E5244" />
<rect x="320" y="864" width="32" height="32" fill="#5E5244" />
<rect x="352" y="864" width="32" height="32" fill="#564939" />
<rect x="384" y="864" width="32" height="32" fill="#675A49" />
<rect x="416" y="864" width="32" height="32" fill="#6F6251" />
<rect x="448" y="864" width="32" height="32" fill="#6C5F4C" />
<rect x="480" y="864" width="32" height="32" fill="#6C5F4C" />
<rect x="512" y="864" width="32" height="32" fill="#6E5F4C" />
<rect x="544" y="864" width="32" height="32" fill="#6E5F4C" />
<rect x="576" y="864" width="32" height="32" fill="#6D5E4B" />
<rect x="608" y="864" width="32" height="32" fill="#766754" />
<rect x="640" y="864" width="32" height="32" fill="#5C4F3F" />
<rect x="672" y="864" width="32" height="32" fill="#5C4F3F" />
<rect x="704" y="864" width="32" height="32" fill="#4A3B28" />
<rect x="384" y="896" width="32" height="32" fill="#4F402D" />
<rect x="416" y="896" width="32" height="32" fill="#4E3F2C" />
<rect x="448" y="896" width="32" height="32" fill="#493A27" />
<rect x="480" y="896" width="32" height="32" fill="#493A27" />
<rect x="512" y="896" width="32" height="32" fill="#4E3F2C" />
<rect x="544" y="896" width="32" height="32" fill="#4E3D29" />
<rect x="576" y="896" width="32" height="32" fill="#4E3D29" />
<rect x="608" y="896" width="32" height="32" fill="#4C3B29" />
</svg>