<?xml version="1.0" encoding="UTF-8" ?>
<svg version="1.1" width="1024" height="1024" xmlns="http://www.w3.org/2000/svg" shape-rendering="crispEdges">
<rect x="256" y="96" width="32" height="32" fill="#2E3137" />
<rect x="288" y="96" width="32" height="32" fill="#2E3137" />
<rect x="320" y="96" width="32" height="32" fill="#2E3137" />
<rect x="352" y="96" width="32" height="32" fill="#2E3137" />
<rect x="384" y="96" width="32" height="32" fill="#2E3137" />
<rect x="416" y="96" width="32" height="32" fill="#2E3137" />
<rect x="448" y="96" width="32" height="32" fill="#2E3137" />
<rect x="224" y="128" width="32" height="32" fill="#2E3137" />
<rect x="256" y="128" width="32" height="32" fill="#CBDBFC" />
<rect x="288" y="128" width="32" height="32" fill="#CBDBFC" />
<rect x="320" y="128" width="32" height="32" fill="#2E3137" />
<rect x="352" y="128" width="32" height="32" fill="#6C8989" />
<rect x="384" y="128" width="32" height="32" fill="#CBDBFC" />
<rect x="416" y="128" width="32" height="32" fill="#CBDBFC" />
<rect x="448" y="128" width="32" height="32" fill="#CBDBFC" />
<rect x="480" y="128" width="32" height="32" fill="#2E3137" />
<rect x="512" y="128" width="32" height="32" fill="#2E3137" />
<rect x="256" y="160" width="32" height="32" fill="#2E3137" />
<rect x="288" y="160" width="32" height="32" fill="#2E3137" />
<rect x="320" y="160" width="32" height="32" fill="#2E3137" />
<rect x="352" y="160" width="32" height="32" fill="#2E3137" />
<rect x="384" y="160" width="32" height="32" fill="#6C8989" />
<rect x="416" y="160" width="32" height="32" fill="#CBDBFC" />
<rect x="448" y="160" width="32" height="32" fill="#CBDBFC" />
<rect x="480" y="160" width="32" height="32" fill="#CBDBFC" />
<rect x="512" y="160" width="32" height="32" fill="#CBDBFC" />
<rect x="544" y="160" width="32" height="32" fill="#2E3137" />
<rect x="320" y="192" width="32" height="32" fill="#2E3137" />
<rect x="352" y="192" width="32" height="32" fill="#2E3137" />
<rect x="384" y="192" width="32" height="32" fill="#2E3137" />
<rect x="416" y="192" width="32" height="32" fill="#CBDBFC" />
<rect x="448" y="192" width="32" height="32" fill="#CBDBFC" />
<rect x="480" y="192" width="32" height="32" fill="#CBDBFC" />
<rect x="512" y="192" width="32" height="32" fill="#CBDBFC" />
<rect x="544" y="192" width="32" height="32" fill="#6C8989" />
<rect x="576" y="192" width="32" height="32" fill="#2E3137" />
<rect x="320" y="224" width="32" height="32" fill="#2E3137" />
<rect x="352" y="224" width="32" height="32" fill="#CBDBFC" />
<rect x="384" y="224" width="32" height="32" fill="#2E3137" />
<rect x="416" y="224" width="32" height="32" fill="#6C8989" />
<rect x="448" y="224" width="32" height="32" fill="#CBDBFC" />
<rect x="480" y="224" width="32" height="32" fill="#6C8989" />
<rect x="512" y="224" width="32" height="32" fill="#6C8989" />
<rect x="544" y="224" width="32" height="32" fill="#6C8989" />
<rect x="576" y="224" width="32" height="32" fill="#2E3137" />
<rect x="320" y="256" width="32" height="32" fill="#2E3137" />
<rect x="352" y="256" width="32" height="32" fill="#CBDBFC" />
<rect x="384" y="256" width="32" height="32" fill="#2E3137" />
<rect x="416" y="256" width="32" height="32" fill="#2E3137" />
<rect x="448" y="256" width="32" height="32" fill="#6C8989" />
<rect x="480" y="256" width="32" height="32" fill="#6C8989" />
<rect x="512" y="256" width="32" height="32" fill="#6C8989" />
<rect x="544" y="256" width="32" height="32" fill="#2E3137" />
<rect x="288" y="288" width="32" height="32" fill="#2E3137" />
<rect x="320" y="288" width="32" height="32" fill="#CBDBFC" />
<rect x="352" y="288" width="32" height="32" fill="#2E3137" />
<rect x="416" y="288" width="32" height="32" fill="#2E3137" />
<rect x="448" y="288" width="32" height="32" fill="#2E3137" />
<rect x="480" y="288" width="32" height="32" fill="#2E3137" />
<rect x="512" y="288" width="32" height="32" fill="#2E3137" />
<rect x="288" y="320" width="32" height="32" fill="#2E3137" />
<rect x="320" y="320" width="32" height="32" fill="#CBDBFC" />
<rect x="352" y="320" width="32" height="32" fill="#2E3137" />
<rect x="416" y="320" width="32" height="32" fill="#2E3137" />
<rect x="448" y="320" width="32" height="32" fill="#CBDBFC" />
<rect x="480" y="320" width="32" height="32" fill="#6C8989" />
<rect x="512" y="320" width="32" height="32" fill="#2E3137" />
<rect x="256" y="352" width="32" height="32" fill="#2E3137" />
<rect x="288" y="352" width="32" height="32" fill="#CBDBFC" />
<rect x="320" y="352" width="32" height="32" fill="#2E3137" />
<rect x="416" y="352" width="32" height="32" fill="#2E3137" />
<rect x="448" y="352" width="32" height="32" fill="#6C8989" />
<rect x="480" y="352" width="32" height="32" fill="#6C8989" />
<rect x="512" y="352" width="32" height="32" fill="#2E3137" />
<rect x="256" y="384" width="32" height="32" fill="#2E3137" />
<rect x="288" y="384" width="32" height="32" fill="#2E3137" />
<rect x="416" y="384" width="32" height="32" fill="#2E3137" />
<rect x="448" y="384" width="32" height="32" fill="#2E3137" />
<rect x="480" y="384" width="32" height="32" fill="#2E3137" />
<rect x="512" y="384" width="32" height="32" fill="#2E3137" />
<rect x="416" y="416" width="32" height="32" fill="#2E3137" />
<rect x="448" y="416" width="32" height="32" fill="#959B9B" />
<rect x="480" y="416" width="32" height="32" fill="#696A6A" />
<rect x="512" y="416" width="32" height="32" fill="#2E3137" />
<rect x="416" y="448" width="32" height="32" fill="#2E3137" />
<rect x="448" y="448" width="32" height="32" fill="#959B9B" />
<rect x="480" y="448" width="32" height="32" fill="#696A6A" />
<rect x="512" y="448" width="32" height="32" fill="#2E3137" />
<rect x="416" y="480" width="32" height="32" fill="#2E3137" />
<rect x="448" y="480" width="32" height="32" fill="#959B9B" />
<rect x="480" y="480" width="32" height="32" fill="#696A6A" />
<rect x="512" y="480" width="32" height="32" fill="#2E3137" />
<rect x="384" y="512" width="32" height="32" fill="#2E3137" />
<rect x="416" y="512" width="32" height="32" fill="#959B9B" />
<rect x="448" y="512" width="32" height="32" fill="#959B9B" />
<rect x="480" y="512" width="32" height="32" fill="#696A6A" />
<rect x="512" y="512" width="32" height="32" fill="#696A6A" />
<rect x="544" y="512" width="32" height="32" fill="#2E3137" />
<rect x="352" y="544" width="32" height="32" fill="#2E3137" />
<rect x="384" y="544" width="32" height="32" fill="#959B9B" />
<rect x="416" y="544" width="32" height="32" fill="#959B9B" />
<rect x="448" y="544" width="32" height="32" fill="#959B9B" />
<rect x="480" y="544" width="32" height="32" fill="#959B9B" />
<rect x="512" y="544" width="32" height="32" fill="#696A6A" />
<rect x="544" y="544" width="32" height="32" fill="#696A6A" />
<rect x="576" y="544" width="32" height="32" fill="#2E3137" />
<rect x="320" y="576" width="32" height="32" fill="#2E3137" />
<rect x="352" y="576" width="32" height="32" fill="#959B9B" />
<rect x="384" y="576" width="32" height="32" fill="#959B9B" />
<rect x="416" y="576" width="32" height="32" fill="#959B9B" />
<rect x="448" y="576" width="32" height="32" fill="#959B9B" />
<rect x="480" y="576" width="32" height="32" fill="#959B9B" />
<rect x="512" y="576" width="32" height="32" fill="#959B9B" />
<rect x="544" y="576" width="32" height="32" fill="#696A6A" />
<rect x="576" y="576" width="32" height="32" fill="#696A6A" />
<rect x="608" y="576" width="32" height="32" fill="#2E3137" />
<rect x="288" y="608" width="32" height="32" fill="#2E3137" />
<rect x="320" y="608" width="32" height="32" fill="#959B9B" />
<rect x="352" y="608" width="32" height="32" fill="#959B9B" />
<rect x="384" y="608" width="32" height="32" fill="#959B9B" />
<rect x="416" y="608" width="32" height="32" fill="#959B9B" />
<rect x="448" y="608" width="32" height="32" fill="#959B9B" />
<rect x="480" y="608" width="32" height="32" fill="#959B9B" />
<rect x="512" y="608" width="32" height="32" fill="#959B9B" />
<rect x="544" y="608" width="32" height="32" fill="#696A6A" />
<rect x="576" y="608" width="32" height="32" fill="#696A6A" />
<rect x="608" y="608" width="32" height="32" fill="#696A6A" />
<rect x="640" y="608" width="32" height="32" fill="#2E3137" />
<rect x="288" y="640" width="32" height="32" fill="#2E3137" />
<rect x="320" y="640" width="32" height="32" fill="#959B9B" />
<rect x="352" y="640" width="32" height="32" fill="#959B9B" />
<rect x="384" y="640" width="32" height="32" fill="#959B9B" />
<rect x="416" y="640" width="32" height="32" fill="#959B9B" />
<rect x="448" y="640" width="32" height="32" fill="#959B9B" />
<rect x="480" y="640" width="32" height="32" fill="#959B9B" />
<rect x="512" y="640" width="32" height="32" fill="#959B9B" />
<rect x="544" y="640" width="32" height="32" fill="#696A6A" />
<rect x="576" y="640" width="32" height="32" fill="#696A6A" />
<rect x="608" y="640" width="32" height="32" fill="#696A6A" />
<rect x="640" y="640" width="32" height="32" fill="#2E3137" />
<rect x="256" y="672" width="32" height="32" fill="#2E3137" />
<rect x="288" y="672" width="32" height="32" fill="#959B9B" />
<rect x="320" y="672" width="32" height="32" fill="#959B9B" />
<rect x="352" y="672" width="32" height="32" fill="#959B9B" />
<rect x="384" y="672" width="32" height="32" fill="#959B9B" />
<rect x="416" y="672" width="32" height="32" fill="#959B9B" />
<rect x="448" y="672" width="32" height="32" fill="#959B9B" />
<rect x="480" y="672" width="32" height="32" fill="#959B9B" />
<rect x="512" y="672" width="32" height="32" fill="#959B9B" />
<rect x="544" y="672" width="32" height="32" fill="#696A6A" />
<rect x="576" y="672" width="32" height="32" fill="#696A6A" />
<rect x="608" y="672" width="32" height="32" fill="#696A6A" />
<rect x="640" y="672" width="32" height="32" fill="#696A6A" />
<rect x="672" y="672" width="32" height="32" fill="#2E3137" />
<rect x="256" y="704" width="32" height="32" fill="#2E3137" />
<rect x="288" y="704" width="32" height="32" fill="#959B9B" />
<rect x="320" y="704" width="32" height="32" fill="#959B9B" />
<rect x="352" y="704" width="32" height="32" fill="#959B9B" />
<rect x="384" y="704" width="32" height="32" fill="#959B9B" />
<rect x="416" y="704" width="32" height="32" fill="#959B9B" />
<rect x="448" y="704" width="32" height="32" fill="#959B9B" />
<rect x="480" y="704" width="32" height="32" fill="#959B9B" />
<rect x="512" y="704" width="32" height="32" fill="#959B9B" />
<rect x="544" y="704" width="32" height="32" fill="#959B9B" />
<rect x="576" y="704" width="32" height="32" fill="#696A6A" />
<rect x="608" y="704" width="32" height="32" fill="#696A6A" />
<rect x="640" y="704" width="32" height="32" fill="#696A6A" />
<rect x="672" y="704" width="32" height="32" fill="#2E3137" />
<rect x="256" y="736" width="32" height="32" fill="#2E3137" />
<rect x="288" y="736" width="32" height="32" fill="#959B9B" />
<rect x="320" y="736" width="32" height="32" fill="#959B9B" />
<rect x="352" y="736" width="32" height="32" fill="#959B9B" />
<rect x="384" y="736" width="32" height="32" fill="#959B9B" />
<rect x="416" y="736" width="32" height="32" fill="#959B9B" />
<rect x="448" y="736" width="32" height="32" fill="#959B9B" />
<rect x="480" y="736" width="32" height="32" fill="#959B9B" />
<rect x="512" y="736" width="32" height="32" fill="#959B9B" />
<rect x="544" y="736" width="32" height="32" fill="#959B9B" />
<rect x="576" y="736" width="32" height="32" fill="#696A6A" />
<rect x="608" y="736" width="32" height="32" fill="#696A6A" />
<rect x="640" y="736" width="32" height="32" fill="#696A6A" />
<rect x="672" y="736" width="32" height="32" fill="#2E3137" />
<rect x="256" y="768" width="32" height="32" fill="#2E3137" />
<rect x="288" y="768" width="32" height="32" fill="#959B9B" />
<rect x="320" y="768" width="32" height="32" fill="#959B9B" />
<rect x="352" y="768" width="32" height="32" fill="#959B9B" />
<rect x="384" y="768" width="32" height="32" fill="#959B9B" />
<rect x="416" y="768" width="32" height="32" fill="#959B9B" />
<rect x="448" y="768" width="32" height="32" fill="#959B9B" />
<rect x="480" y="768" width="32" height="32" fill="#959B9B" />
<rect x="512" y="768" width="32" height="32" fill="#959B9B" />
<rect x="544" y="768" width="32" height="32" fill="#959B9B" />
<rect x="576" y="768" width="32" height="32" fill="#696A6A" />
<rect x="608" y="768" width="32" height="32" fill="#696A6A" />
<rect x="640" y="768" width="32" height="32" fill="#696A6A" />
<rect x="672" y="768" width="32" height="32" fill="#2E3137" />
<rect x="256" y="800" width="32" height="32" fill="#2E3137" />
<rect x="288" y="800" width="32" height="32" fill="#959B9B" />
<rect x="320" y="800" width="32" height="32" fill="#959B9B" />
<rect x="352" y="800" width="32" height="32" fill="#959B9B" />
<rect x="384" y="800" width="32" height="32" fill="#959B9B" />
<rect x="416" y="800" width="32" height="32" fill="#959B9B" />
<rect x="448" y="800" width="32" height="32" fill="#959B9B" />
<rect x="480" y="800" width="32" height="32" fill="#959B9B" />
<rect x="512" y="800" width="32" height="32" fill="#959B9B" />
<rect x="544" y="800" width="32" height="32" fill="#959B9B" />
<rect x="576" y="800" width="32" height="32" fill="#696A6A" />
<rect x="608" y="800" width="32" height="32" fill="#696A6A" />
<rect x="640" y="800" width="32" height="32" fill="#696A6A" />
<rect x="672" y="800" width="32" height="32" fill="#2E3137" />
<rect x="288" y="832" width="32" height="32" fill="#2E3137" />
<rect x="320" y="832" width="32" height="32" fill="#696A6A" />
<rect x="352" y="832" width="32" height="32" fill="#696A6A" />
<rect x="384" y="832" width="32" height="32" fill="#959B9B" />
<rect x="416" y="832" width="32" height="32" fill="#959B9B" />
<rect x="448" y="832" width="32" height="32" fill="#959B9B" />
<rect x="480" y="832" width="32" height="32" fill="#959B9B" />
<rect x="512" y="832" width="32" height="32" fill="#959B9B" />
<rect x="544" y="832" width="32" height="32" fill="#959B9B" />
<rect x="576" y="832" width="32" height="32" fill="#696A6A" />
<rect x="608" y="832" width="32" height="32" fill="#696A6A" />
<rect x="640" y="832" width="32" height="32" fill="#2E3137" />
<rect x="288" y="864" width="32" height="32" fill="#2E3137" />
<rect x="320" y="864" width="32" height="32" fill="#696A6A" />
<rect x="352" y="864" width="32" height="32" fill="#696A6A" />
<rect x="384" y="864" width="32" height="32" fill="#696A6A" />
<rect x="416" y="864" width="32" height="32" fill="#696A6A" />
<rect x="448" y="864" width="32" height="32" fill="#696A6A" />
<rect x="480" y="864" width="32" height="32" fill="#696A6A" />
<rect x="512" y="864" width="32" height="32" fill="#696A6A" />
<rect x="544" y="864" width="32" height="32" fill="#696A6A" />
<rect x="576" y="864" width="32" height="32" fill="#696A6A" />
<rect x="608" y="864" width="32" height="32" fill="#696A6A" />
<rect x="640" y="864" width="32" height="32" fill="#2E3137" />
<rect x="320" y="896" width="32" height="32" fill="#2E3137" />
<rect x="352" y="896" width="32" height="32" fill="#696A6A" />
<rect x="384" y="896" width="32" height="32" fill="#696A6A" />
<rect x="416" y="896" width="32" height="32" fill="#696A6A" />
<rect x="448" y="896" width="32" height="32" fill="#696A6A" />
<rect x="480" y="896" width="32" height="32" fill="#696A6A" />
<rect x="512" y="896" width="32" height="32" fill="#696A6A" />
<rect x="544" y="896" width="32" height="32" fill="#696A6A" />
<rect x="576" y="896" width="32" height="32" fill="#696A6A" />
<rect x="608" y="896" width="32" height="32" fill="#2E3137" />
<rect x="352" y="928" width="32" height="32" fill="#2E3137" />
<rect x="384" y="928" width="32" height="32" fill="#2E3137" />
<rect x="416" y="928" width="32" height="32" fill="#2E3137" />
<rect x="448" y="928" width="32" height="32" fill="#2E3137" />
<rect x="480" y="928" width="32" height="32" fill="#2E3137" />
<rect x="512" y="928" width="32" height="32" fill="#2E3137" />
<rect x="544" y="928" width="32" height="32" fill="#2E3137" />
<rect x="576" y="928" width="32" height="32" fill="#2E3137" />
</svg>